<svg width="252" height="157" viewBox="0 0 252 157" fill="none" xmlns="http://www.w3.org/2000/svg">
<path d="M246.02 31.5733C220.529 -25.1071 136.108 2.40839 117.739 52.1912C108.817 31.7982 91.5734 17.1033 67.5067 11.7801C38.3418 5.5573 3.47889 32.398 0.255005 61.5629C-4.54333 103.773 59.4095 100.549 104.844 96.8757C104.844 97.5505 104.619 98.2252 104.619 98.6751C99.8205 114.045 95.2471 129.19 89.2492 144.109C84.9007 155.131 102.819 162.253 108.068 152.132C112.191 144.334 115.415 135.412 117.439 125.966C118.339 123.416 119.014 120.942 119.764 118.393C121.338 121.842 122.988 125.516 124.787 128.965C128.686 136.537 134.159 148.908 144.955 145.684C149.753 144.334 151.628 139.011 149.303 134.663C152.302 140.136 149.078 130.314 148.179 129.189C145.63 124.841 143.156 120.493 141.056 116.144C137.607 109.246 134.384 102.124 131.385 94.7764C134.608 94.5515 137.607 94.5515 140.082 94.7764C182.442 97.1756 276.309 98.975 246.02 31.5733ZM25.2963 52.8659C49.8128 5.63227 95.472 40.7201 105.818 74.4584C92.9979 74.9083 80.3273 75.5831 67.2818 76.2578C54.0114 77.2325 9.92665 82.0308 25.2963 52.8659ZM140.456 74.6834C138.132 74.6834 135.883 74.6834 133.559 74.4584C138.133 24.9006 225.777 -6.2886 232.45 55.64C235.224 81.8059 154.477 75.1332 140.456 74.6834Z" fill="#CC231E"/>
</svg>
