<svg width="512" height="512" viewBox="0 0 512 512" fill="none" xmlns="http://www.w3.org/2000/svg">
<g clip-path="url(#clip0)">
<path d="M255.926 61.879C165.061 61.879 82.456 94.921 82.456 94.921V276.652C82.456 342.736 125.824 372.68 173.321 408.82H338.531C386.029 372.68 429.396 342.736 429.396 276.652V94.921C429.396 94.921 346.792 61.879 255.926 61.879Z" fill="#AA968C"/>
<path d="M165.055 251.873C178.741 251.873 189.836 240.778 189.836 227.092C189.836 213.406 178.741 202.311 165.055 202.311C151.369 202.311 140.274 213.406 140.274 227.092C140.274 240.778 151.369 251.873 165.055 251.873Z" fill="#464655"/>
<path d="M346.797 251.873C360.483 251.873 371.578 240.778 371.578 227.092C371.578 213.406 360.483 202.311 346.797 202.311C333.111 202.311 322.016 213.406 322.016 227.092C322.016 240.778 333.111 251.873 346.797 251.873Z" fill="#464655"/>
<path d="M280.708 466.643H231.145C194.648 466.643 165.061 437.056 165.061 400.559V334.475H346.792V400.559C346.792 437.056 317.205 466.643 280.708 466.643Z" fill="#AA968C"/>
<path d="M255.926 243.61C240.353 243.61 225.835 251.373 217.244 264.361C195.725 296.895 156.8 357.562 156.8 370.698C156.8 388.854 189.842 452.398 255.926 416.087C322.01 452.398 355.052 388.853 355.052 370.698C355.052 357.561 316.128 296.895 294.608 264.361C286.017 251.372 271.499 243.61 255.926 243.61Z" fill="#D2BEAF"/>
<path d="M297.229 339.065C297.229 359.341 255.927 375.779 255.927 375.779C255.927 375.779 214.625 359.342 214.625 339.065C214.625 318.789 233.117 309.695 255.927 309.695C278.737 309.695 297.229 318.788 297.229 339.065Z" fill="#464655"/>
<path d="M143.053 99.072L75.631 267.623C71.732 277.37 58.281 278.258 53.134 269.109L4.691 182.989C-3.111 169.119 -1.035 151.794 9.824 140.16L92.755 51.305C100.442 43.068 113.611 43.439 120.823 52.094L139.08 74.003C144.908 80.996 146.432 90.62 143.053 99.072Z" fill="#8C7873"/>
<path d="M368.949 99.072L436.37 267.624C440.269 277.371 453.72 278.259 458.867 269.11L507.309 182.99C515.111 169.12 513.035 151.795 502.176 140.161L419.245 51.306C411.558 43.069 398.389 43.44 391.177 52.095L372.92 74.003C367.094 80.996 365.569 90.62 368.949 99.072Z" fill="#8C7873"/>
</g>
<defs>
<clipPath id="clip0">
<rect width="512.001" height="512.001" fill="white"/>
</clipPath>
</defs>
</svg>
