<svg width="267" height="267" viewBox="0 0 267 267" fill="none" xmlns="http://www.w3.org/2000/svg">
<path fill-rule="evenodd" clip-rule="evenodd" d="M0 266.871H266.869V0.000976562H0V266.871Z" fill="#E7313E"/>
<path fill-rule="evenodd" clip-rule="evenodd" d="M0 11.159L11.159 0.000976562H33.167L0 33.168V11.159Z" fill="#7AD6AB"/>
<path fill-rule="evenodd" clip-rule="evenodd" d="M0 55.652L55.65 0.000976562H77.659L0 77.659V55.652Z" fill="#FF6666"/>
<path fill-rule="evenodd" clip-rule="evenodd" d="M0 100.144L100.143 0.000976562H122.152L0 122.153V100.144Z" fill="#7AD6AB"/>
<path fill-rule="evenodd" clip-rule="evenodd" d="M0 144.636L144.634 0.000976562H166.642L0 166.642V144.636Z" fill="#FF6666"/>
<path fill-rule="evenodd" clip-rule="evenodd" d="M0 189.128L189.127 0.000976562H211.135L0 211.135V189.128Z" fill="#7AD6AB"/>
<path fill-rule="evenodd" clip-rule="evenodd" d="M0 233.62L233.62 0.000976562H255.627L0 255.627V233.62Z" fill="#FF6666"/>
<path fill-rule="evenodd" clip-rule="evenodd" d="M11.24 266.871L266.868 11.2429V33.2529L33.249 266.871H11.24Z" fill="#7AD6AB"/>
<path fill-rule="evenodd" clip-rule="evenodd" d="M55.7321 266.871L266.868 55.7349V77.7439L77.7411 266.871H55.7321Z" fill="#FF6666"/>
<path fill-rule="evenodd" clip-rule="evenodd" d="M100.225 266.871L266.868 100.229V122.235L122.231 266.871H100.225Z" fill="#7AD6AB"/>
<path fill-rule="evenodd" clip-rule="evenodd" d="M144.717 266.871L266.868 144.72V166.728L166.725 266.871H144.717Z" fill="#FF6666"/>
<path fill-rule="evenodd" clip-rule="evenodd" d="M189.208 266.871L266.868 189.211V211.22L211.217 266.871H189.208Z" fill="#7AD6AB"/>
<path fill-rule="evenodd" clip-rule="evenodd" d="M233.701 266.871L266.868 233.704V255.713L255.709 266.871H233.701Z" fill="#FF6666"/>
<path fill-rule="evenodd" clip-rule="evenodd" d="M0 266.871H266.869V0.000976562H0V266.871Z" fill="#E7313E"/>
<path fill-rule="evenodd" clip-rule="evenodd" d="M0 11.159L11.159 0.000976562H33.167L0 33.168V11.159Z" fill="#7AD6AB"/>
<path fill-rule="evenodd" clip-rule="evenodd" d="M0 55.652L55.65 0.000976562H77.659L0 77.659V55.652Z" fill="#FF6666"/>
<path fill-rule="evenodd" clip-rule="evenodd" d="M0 100.144L100.143 0.000976562H122.152L0 122.153V100.144Z" fill="#7AD6AB"/>
<path fill-rule="evenodd" clip-rule="evenodd" d="M0 144.636L144.634 0.000976562H166.642L0 166.642V144.636Z" fill="#FF6666"/>
<path fill-rule="evenodd" clip-rule="evenodd" d="M0 189.128L189.127 0.000976562H211.135L0 211.135V189.128Z" fill="#7AD6AB"/>
<path fill-rule="evenodd" clip-rule="evenodd" d="M0 233.62L233.62 0.000976562H255.627L0 255.627V233.62Z" fill="#FF6666"/>
<path fill-rule="evenodd" clip-rule="evenodd" d="M11.24 266.871L266.868 11.2429V33.2529L33.249 266.871H11.24Z" fill="#7AD6AB"/>
<path fill-rule="evenodd" clip-rule="evenodd" d="M55.7319 266.871L266.868 55.7349V77.7439L77.7409 266.871H55.7319Z" fill="#FF6666"/>
<path fill-rule="evenodd" clip-rule="evenodd" d="M100.225 266.871L266.868 100.229V122.235L122.231 266.871H100.225Z" fill="#7AD6AB"/>
<path fill-rule="evenodd" clip-rule="evenodd" d="M144.717 266.871L266.868 144.72V166.728L166.725 266.871H144.717Z" fill="#FF6666"/>
<path fill-rule="evenodd" clip-rule="evenodd" d="M189.208 266.871L266.868 189.211V211.22L211.217 266.871H189.208Z" fill="#7AD6AB"/>
<path fill-rule="evenodd" clip-rule="evenodd" d="M233.701 266.871L266.868 233.704V255.713L255.709 266.871H233.701Z" fill="#FF6666"/>
</svg>
