<svg width="272" height="267" viewBox="0 0 272 267" fill="none" xmlns="http://www.w3.org/2000/svg">
<path fill-rule="evenodd" clip-rule="evenodd" d="M0.868896 266.871H267.739V0.000976562H0.868896V266.871Z" fill="#FF6666"/>
<path fill-rule="evenodd" clip-rule="evenodd" d="M101.43 96.4651C105.041 96.8491 108.155 101.243 108.731 105.381C109.708 112.364 114.397 118.735 121.698 118.735C128.999 118.735 135.653 117.323 136.712 110.269C137.461 105.277 140.082 107.31 142.166 107.584C143.434 107.748 144.764 108.688 144.5 109.946L141.507 124.211C141.243 125.473 140.447 126.572 139.172 126.572H99.916C98.64 126.572 97.723 125.499 97.579 124.211L95.579 106.182C95.268 103.393 92.526 101.204 91.046 100.079C89.003 98.531 89.584 97.77 89.792 96.454C89.94 95.522 90.769 94.849 91.693 94.967C96.166 95.545 96.968 95.9731 101.43 96.4651ZM101.937 142.019L105.055 133.584L98.514 133.586C97.625 133.586 96.904 132.823 96.904 131.882C96.904 130.943 97.625 130.178 98.514 130.178L139.554 130.159C140.442 130.159 141.162 130.922 141.162 131.861C141.162 132.802 140.441 133.567 139.554 133.567L131.192 133.57L135.739 142.005L149.623 141.998C149.645 141.995 149.797 141.982 149.797 141.998C150.99 142.014 152.197 141.923 153.372 141.711C154.464 141.515 155.5 141.219 156.439 140.814C156.655 140.72 158.974 139.225 158.976 139.23C159.619 138.654 160.146 137.978 160.523 137.199C161.404 135.372 161.632 133.449 161.38 131.647C161.098 129.643 160.227 127.791 158.992 126.382C157.791 125.009 156.252 124.066 154.595 123.84C153.147 123.643 151.568 124 150.006 125.113C148.984 125.84 148.335 126.754 147.993 127.733C147.235 129.903 147.939 132.56 149.544 134.161C150.229 134.846 151.069 135.319 151.99 135.446C152.406 135.505 152.823 135.481 153.216 135.387C153.607 135.291 153.963 135.133 154.257 134.919C154.548 134.707 154.793 134.439 154.967 134.124C155.13 133.837 155.233 133.502 155.261 133.126C155.296 132.674 155.254 132.26 155.141 131.9C155.033 131.552 154.871 131.257 154.663 131.031C154.468 130.819 154.221 130.652 153.936 130.547C153.649 130.441 153.326 130.396 152.981 130.429C152.053 130.519 151.229 129.831 151.143 128.895C151.056 127.958 151.736 127.125 152.663 127.035C153.536 126.953 154.358 127.066 155.099 127.339C155.876 127.629 156.566 128.102 157.135 128.718C157.688 129.326 158.112 130.06 158.366 130.884C158.606 131.651 158.703 132.499 158.632 133.393C158.564 134.278 158.305 135.092 157.902 135.81C157.483 136.556 156.909 137.189 156.227 137.685C155.561 138.17 154.801 138.523 153.995 138.716C153.221 138.902 152.388 138.947 151.54 138.829C149.85 138.593 148.36 137.772 147.176 136.592C144.637 134.06 143.611 130.023 144.808 126.596C145.37 124.981 146.425 123.487 148.063 122.319C150.379 120.669 152.787 120.149 155.044 120.457C157.534 120.799 159.795 122.157 161.516 124.122C163.178 126.019 164.348 128.497 164.724 131.167C165.068 133.612 164.755 136.22 163.564 138.696C162.505 140.878 159.974 143.003 157.76 143.957C156.569 144.47 155.282 144.842 153.954 145.08C151.718 145.482 149.501 145.407 147.251 145.407L91.154 145.435C90.225 145.435 89.469 144.672 89.469 143.731C89.469 142.79 90.225 142.027 91.154 142.027L101.937 142.019ZM108.506 133.582L108.635 133.631L105.535 142.019L131.9 142.008L127.353 133.572L108.506 133.582Z" fill="#F8F5EB"/>
<path fill-rule="evenodd" clip-rule="evenodd" d="M185.284 160.1L177.952 162.258L177.095 159.344C175.803 154.953 171.145 152.415 166.756 153.707L164.037 154.508C159.643 155.8 157.108 160.453 158.4 164.845L159.259 167.759L151.925 169.917C149.781 170.548 148.651 172.793 149.176 174.961L156.752 206.375C157.274 208.543 159.654 209.755 161.793 209.125L198.223 198.404C200.363 197.776 201.709 195.471 200.972 193.36L190.326 162.85C189.593 160.74 187.428 159.469 185.284 160.1ZM174.824 163.179L162.387 166.839L161.528 163.925C159.536 157.159 171.975 153.503 173.964 160.266L174.824 163.179ZM176.083 164.76C174.749 165.153 173.984 166.553 174.377 167.893C174.77 169.228 176.173 169.993 177.509 169.599C178.846 169.206 179.611 167.803 179.216 166.466C178.825 165.13 177.42 164.365 176.083 164.76ZM162.183 168.851C160.847 169.244 160.081 170.647 160.475 171.984C160.87 173.319 162.271 174.083 163.608 173.69C164.945 173.297 165.71 171.895 165.317 170.558C164.923 169.221 163.52 168.455 162.183 168.851ZM168.602 179.713C168.128 179.482 167.931 178.912 168.161 178.439C168.389 177.966 168.961 177.771 169.432 177.999L171.193 178.856L170.482 176.445C170.334 175.939 170.624 175.41 171.129 175.259C171.633 175.113 172.163 175.402 172.313 175.906L172.981 178.178L173.814 176.65C174.065 176.186 174.647 176.017 175.108 176.269C175.569 176.52 175.738 177.1 175.487 177.563L173.74 180.766L174.262 182.536L175.941 180.46C176.23 180.102 176.727 180.008 177.12 180.215H177.153C177.677 180.22 178.101 180.648 178.096 181.173L178.082 183.82L179.548 182.837L180.089 179.186C180.167 178.666 180.649 178.306 181.172 178.383C181.69 178.458 182.05 178.943 181.974 179.463L181.685 181.398L183.77 179.998C184.208 179.704 184.801 179.819 185.095 180.257C185.386 180.695 185.271 181.288 184.833 181.582L182.867 182.902L184.576 183.236C185.094 183.337 185.43 183.839 185.329 184.357C185.225 184.872 184.726 185.211 184.208 185.11L180.629 184.406L179.097 185.434L181.582 186.411C182.01 186.58 182.246 187.025 182.17 187.463L182.177 187.494C182.332 187.998 182.052 188.529 181.549 188.683L179.019 189.464L180.4 190.566L184.043 189.987C184.561 189.905 185.05 190.258 185.133 190.776C185.218 191.296 184.862 191.785 184.344 191.868L182.412 192.174L184.375 193.744C184.787 194.071 184.855 194.671 184.526 195.084C184.198 195.496 183.598 195.564 183.186 195.234L181.334 193.756L181.53 195.488C181.589 196.011 181.212 196.481 180.687 196.54C180.165 196.599 179.694 196.223 179.635 195.7L179.228 192.073L177.785 190.922L177.602 193.584C177.569 194.045 177.214 194.405 176.776 194.461L176.747 194.48C176.314 194.779 175.723 194.67 175.425 194.237L173.918 192.058L173.282 193.705L174.932 197.007C175.168 197.478 174.976 198.05 174.506 198.285C174.035 198.521 173.463 198.33 173.228 197.861L172.355 196.11L171.452 198.455C171.261 198.947 170.708 199.189 170.216 199.001C169.726 198.813 169.482 198.26 169.669 197.768L170.524 195.558L168.931 196.264C168.451 196.478 167.886 196.259 167.674 195.776C167.46 195.296 167.676 194.734 168.158 194.52L171.493 193.041L172.157 191.32L169.563 191.944C169.114 192.052 168.664 191.822 168.478 191.422L168.452 191.401C168.038 191.079 167.963 190.481 168.285 190.064L169.912 187.974L168.149 187.863L165.494 190.428C165.118 190.796 164.515 190.784 164.148 190.407C163.783 190.03 163.792 189.425 164.169 189.061L165.576 187.701L163.069 187.543C162.542 187.51 162.142 187.059 162.175 186.531C162.208 186.007 162.662 185.606 163.189 185.639L165.552 185.79L164.399 184.482C164.05 184.088 164.09 183.484 164.484 183.136C164.879 182.79 165.481 182.828 165.83 183.223L168.245 185.96L170.086 186.075L168.709 183.787C168.532 183.49 168.535 183.135 168.686 182.85L168.695 182.822C168.855 182.321 169.391 182.045 169.893 182.21L172.414 183.022L171.915 181.325L168.602 179.713ZM171.035 189.638L173.351 189.083C173.741 188.953 174.186 189.09 174.433 189.445L174.271 189.558L174.433 189.448L175.845 191.493L176.01 189.118C176.005 188.706 176.269 188.322 176.68 188.195L176.74 188.383V188.381L176.683 188.197L179.06 187.463L176.843 186.592C176.448 186.473 176.163 186.105 176.165 185.672L176.363 185.675V185.672H176.167L176.182 183.187L174.685 185.037C174.452 185.378 174.017 185.541 173.605 185.406L173.666 185.22H173.664L173.605 185.406L171.496 184.726L172.583 186.536C172.823 186.87 172.827 187.336 172.562 187.675L172.407 187.555L172.56 187.675L171.035 189.638Z" fill="#F8F5EB"/>
<path d="M0.868896 73.7769L1.0199 68.151C1.0419 67.268 1.7729 66.569 2.6539 66.591C3.5359 66.612 4.2349 67.3439 4.2139 68.2269L4.10092 72.5009L7.11392 70.7599C7.87892 70.3219 8.8549 70.583 9.2959 71.349C9.7339 72.114 9.46991 73.0899 8.70691 73.5309L5.7009 75.2639L9.4519 77.2979C10.2289 77.7219 10.5179 78.6939 10.0969 79.4719C9.67389 80.2509 8.70091 80.5379 7.92191 80.1169L2.4429 77.1439L0.86792 78.0529V73.7769H0.868896ZM0.868896 85.8629L2.44391 86.772L7.9259 83.7989C8.7019 83.3779 9.6769 83.667 10.0979 84.444C10.5189 85.223 10.2319 86.1969 9.45291 86.6189L5.7019 88.6529L8.70792 90.3869C9.47092 90.8269 9.73391 91.8009 9.29691 92.5659C8.85591 93.3309 7.87991 93.5949 7.11691 93.1539L4.1019 91.4149L4.2149 95.6869C4.2359 96.5699 3.53692 97.302 2.65692 97.323C1.77492 97.345 1.0429 96.645 1.0209 95.763L0.869904 90.1399V85.8629H0.868896Z" fill="#F8F5EB"/>
<path d="M239.985 73.529C239.22 73.089 238.956 72.112 239.396 71.349C239.834 70.584 240.81 70.321 241.575 70.759L244.59 72.5L244.475 68.226C244.456 67.346 245.153 66.613 246.035 66.593C246.918 66.572 247.65 67.271 247.671 68.151L247.836 74.374L252.445 77.033C252.51 76.962 252.577 76.894 252.645 76.826C253.598 75.872 254.815 75.185 256.176 74.877V69.553L250.876 66.3C250.12 65.841 249.882 64.858 250.344 64.102C250.803 63.349 251.789 63.111 252.542 63.57L256.176 65.799V62.327C256.176 61.443 256.894 60.725 257.781 60.725C258.666 60.725 259.382 61.443 259.382 62.327V65.799L263.018 63.57C263.774 63.111 264.757 63.349 265.216 64.102C265.678 64.858 265.44 65.841 264.684 66.3L259.382 69.553V74.877C260.714 75.176 261.95 75.86 262.915 76.826C262.983 76.894 263.049 76.962 263.115 77.033L267.723 74.374L267.74 73.754V78.051L264.713 79.799C264.927 80.482 265.041 81.207 265.041 81.96C265.041 82.71 264.928 83.436 264.716 84.118L267.74 85.864V90.163L267.723 89.543L263.118 86.881C263.052 86.954 262.983 87.024 262.915 87.093C261.962 88.046 260.745 88.736 259.384 89.042V94.363L264.687 97.616C265.44 98.075 265.678 99.059 265.219 99.814C264.757 100.567 263.774 100.806 263.02 100.346L259.383 98.117V101.588C259.383 102.473 258.666 103.191 257.78 103.191C256.893 103.191 256.178 102.473 256.178 101.588V98.117L252.541 100.346C251.788 100.805 250.804 100.567 250.343 99.814C249.884 99.059 250.122 98.075 250.875 97.616L256.178 94.363V89.042C254.815 88.736 253.598 88.046 252.645 87.093C252.577 87.024 252.511 86.954 252.443 86.884L247.837 89.543L247.672 95.766C247.651 96.648 246.919 97.345 246.039 97.326C245.156 97.305 244.457 96.573 244.479 95.691L244.592 91.416L241.577 93.155C240.812 93.597 239.836 93.332 239.398 92.567C238.958 91.804 239.221 90.828 239.987 90.388L242.99 88.655L239.241 86.621C238.462 86.197 238.173 85.225 238.596 84.446C239.017 83.669 239.992 83.38 240.768 83.801L246.249 86.771L250.848 84.118C250.634 83.433 250.521 82.71 250.521 81.958C250.521 81.207 250.633 80.479 250.848 79.797L246.246 77.142L240.767 80.112C239.988 80.536 239.016 80.246 238.595 79.467C238.172 78.689 238.461 77.716 239.24 77.295L242.989 75.261L239.985 73.529ZM257.78 77.907C256.66 77.907 255.645 78.361 254.913 79.093C254.179 79.827 253.725 80.842 253.725 81.96C253.725 83.077 254.179 84.092 254.913 84.826C255.645 85.558 256.659 86.012 257.78 86.012C258.898 86.012 259.912 85.558 260.644 84.826C261.379 84.092 261.833 83.077 261.833 81.96C261.833 80.842 261.379 79.827 260.644 79.093C259.889 78.337 258.847 77.907 257.78 77.907Z" fill="#F8F5EB"/>
<path fill-rule="evenodd" clip-rule="evenodd" d="M108.822 0.000976562C109.874 5.89098 110.353 3.778 114.851 10.164C114.928 10.115 115.199 10.927 115.213 11.011L118.584 22.521C118.892 23.681 118.174 24.877 116.979 25.188C115.781 25.499 114.559 24.812 114.251 23.651L110.935 12.335C106.174 5.57999 101.142 -0.79802 106.858 11.704L106.863 11.702C107.009 12.027 107.07 12.366 107.052 12.697L106.927 24.955C106.955 26.158 105.971 27.163 104.735 27.2C103.497 27.238 102.473 26.292 102.447 25.091L102.577 13.104L99.162 6.20599L81.298 9.155L84.671 18.487L84.676 18.485C84.773 18.761 84.806 19.043 84.787 19.316L84.251 28.769C84.239 29.972 83.224 30.949 81.986 30.949C80.748 30.949 79.754 29.972 79.767 28.767L80.301 19.556C76.65 8.948 75.384 3.294 75.735 18.604L75.641 30.114C75.672 31.317 74.695 32.322 73.459 32.366C72.224 32.409 71.197 31.467 71.164 30.266L71.258 18.754L71.091 5.866V5.78598C70.931 5.24998 70.86 4.66299 70.768 4.10999C70.495 2.57899 70.222 1.21799 69.949 0.00299072H88.879C88.537 0.420991 88.37 0.970987 88.463 1.53699C88.64 2.60099 89.671 3.319 90.768 3.138C91.865 2.957 92.611 1.947 92.436 0.884003C92.381 0.550003 92.242 0.251991 92.044 0.00299072H108.822V0.000976562Z" fill="#F8F5EB"/>
<path fill-rule="evenodd" clip-rule="evenodd" d="M106.512 250.899C115.23 252.589 111.125 260.413 107.124 259.706C107.555 260.346 107.861 261.095 107.993 261.888L108.631 265.75C108.698 266.154 108.76 266.525 108.822 266.87H92.0431C91.6071 266.324 90.8841 266.025 90.1301 266.148C89.6161 266.233 89.1781 266.501 88.8761 266.87H69.9481C66.9671 253.562 64.0812 258.219 62.0282 259.202C54.9692 262.575 52.4271 260.351 53.3191 253.982C53.7691 250.783 53.6391 246.17 56.4921 243.931L59.4581 242.17C59.1031 241.782 58.7831 241.377 58.6041 240.937C55.8121 241.052 53.8852 240.384 52.5362 239.221C50.9592 237.861 50.2601 236.639 49.9521 234.495C49.8131 233.514 50.5141 232.476 51.5221 232.175C52.5291 231.876 53.4591 232.429 53.5981 233.411C53.8071 234.873 54.2451 235.435 55.1751 236.238C55.7961 236.775 56.6861 237.128 57.9451 237.215C57.9761 235.525 58.3971 234.342 59.3501 232.124C59.7741 231.133 60.8701 230.554 61.7961 230.828C62.7231 231.106 63.1301 232.134 62.7041 233.125C60.9741 237.149 61.8191 239.244 63.7141 241.407C65.2151 241.381 66.6951 241.603 67.8991 242.132C70.4011 241.33 71.5731 240.299 72.9051 238.557C74.4371 236.559 75.1311 234.41 74.2351 230.345C74.0211 229.366 74.6631 228.394 75.6711 228.177C76.6801 227.958 77.6711 228.575 77.8851 229.554C78.4101 231.931 78.3961 233.306 78.1511 235.144C80.0461 235.048 81.3211 234.638 82.1211 233.838C83.2421 232.727 83.8561 231.383 84.0731 228.215C84.1411 227.214 85.0311 226.45 86.0591 226.507C87.0881 226.563 87.8671 227.42 87.7981 228.42C87.5201 232.472 86.6262 234.527 84.7782 236.365C83.0602 238.076 80.6291 238.808 77.0671 238.801C76.7351 239.486 76.3381 240.121 75.8841 240.714C74.4551 242.583 73.4051 243.802 71.0911 244.802C74.2431 249.696 81.5391 260.492 88.3011 259.376L98.9211 257.623C102.592 257.019 107.301 255.882 106.512 250.899ZM96.2031 260.631C95.1061 260.812 94.3602 261.819 94.5362 262.885C94.7132 263.951 95.7441 264.667 96.8411 264.485C97.9381 264.304 98.6831 263.294 98.5071 262.231C98.3341 261.166 97.3001 260.45 96.2031 260.631ZM82.8342 262.728C81.7372 262.91 80.9891 263.919 81.1661 264.983C81.3431 266.049 82.3741 266.764 83.4701 266.583C84.5671 266.402 85.3131 265.392 85.1371 264.328C84.9621 263.263 83.9312 262.547 82.8342 262.728ZM66.2491 247.168L66.1321 247.441C64.9321 250.211 64.8521 253.608 60.8311 253.532C59.0851 253.499 58.6631 253.916 58.3061 254.255C57.6651 246.851 61.5671 248.267 66.2491 247.168Z" fill="#F8F5EB"/>
<path d="M68.0369 172.085C67.2299 172.019 66.6269 171.311 66.6929 170.504C66.7569 169.697 67.4649 169.096 68.2719 169.162L71.4609 169.428L69.6909 165.921C69.3289 165.196 69.6229 164.314 70.3459 163.951C71.0709 163.589 71.9529 163.88 72.3179 164.606L74.8929 169.713L79.765 170.118C79.791 170.033 79.8189 169.948 79.8499 169.866C80.2669 168.701 81.0099 167.648 82.0199 166.862L79.9349 162.437L74.2529 161.811C73.4489 161.726 72.8649 160.999 72.9489 160.194C73.0359 159.387 73.7609 158.803 74.5679 158.89L78.4629 159.318L77.1029 156.433C76.7549 155.698 77.0699 154.82 77.8069 154.472C78.5429 154.126 79.4219 154.439 79.7679 155.176L81.1279 158.062L83.2739 154.783C83.7209 154.107 84.6319 153.919 85.3099 154.364C85.9879 154.811 86.1759 155.722 85.7289 156.4L82.5989 161.18L84.6839 165.605C85.9059 165.332 87.2029 165.417 88.3809 165.841C88.4659 165.872 88.5489 165.902 88.6299 165.935L91.4169 161.92L89.1149 156.683C88.7879 155.942 89.1219 155.076 89.8639 154.746C90.6059 154.416 91.4709 154.753 91.8009 155.495L93.3799 159.089L95.2039 156.462C95.6649 155.798 96.5809 155.633 97.2449 156.097C97.9109 156.559 98.0739 157.474 97.6099 158.138L95.7949 160.757L99.7069 160.979C100.519 161.024 101.14 161.72 101.095 162.529C101.051 163.342 100.354 163.965 99.5419 163.918L93.8229 163.596L91.0409 167.606C91.4849 168.091 91.8639 168.649 92.1579 169.274C92.4549 169.898 92.6429 170.545 92.7349 171.195L97.5969 171.6L100.986 166.982C101.469 166.326 102.389 166.184 103.046 166.667C103.701 167.15 103.841 168.07 103.362 168.726L101.041 171.885L104.216 172.151C105.023 172.214 105.626 172.923 105.562 173.73C105.496 174.537 104.788 175.14 103.98 175.074L100.791 174.808L102.561 178.315C102.926 179.04 102.632 179.923 101.905 180.285C101.182 180.647 100.3 180.353 99.9369 179.629L97.3599 174.524L92.4899 174.119C92.4609 174.203 92.433 174.291 92.403 174.376C91.987 175.539 91.2449 176.588 90.2349 177.377L92.3179 181.797L97.9999 182.423C98.8069 182.51 99.3909 183.235 99.3039 184.042C99.2169 184.849 98.4919 185.433 97.6849 185.344L93.7889 184.918L95.1519 187.801C95.4979 188.537 95.1829 189.415 94.4459 189.762C93.7089 190.11 92.8309 189.795 92.4859 189.058L91.1259 186.172L88.9789 189.451C88.5319 190.129 87.6209 190.317 86.9429 189.87C86.2649 189.425 86.0769 188.513 86.5239 187.834L89.6539 183.054L87.5689 178.634C86.3189 178.911 85.0359 178.817 83.8709 178.398C83.7859 178.367 83.7039 178.334 83.6209 178.301L80.834 182.317L83.1359 187.554C83.4639 188.295 83.1289 189.161 82.3879 189.489C81.6459 189.819 80.7799 189.484 80.4529 188.743L78.8709 185.147L77.0489 187.776C76.5849 188.44 75.6689 188.603 75.0049 188.141C74.3419 187.677 74.1769 186.762 74.6409 186.098L76.4559 183.481L72.5439 183.26C71.7319 183.215 71.1109 182.518 71.1559 181.706C71.2039 180.894 71.897 180.273 72.709 180.32L78.4279 180.64L81.2079 176.632C80.7659 176.15 80.3859 175.592 80.0899 174.966C79.7959 174.342 79.6079 173.692 79.5159 173.043L74.653 172.638L71.2639 177.255C70.7819 177.909 69.8609 178.051 69.2049 177.571C68.5509 177.088 68.4089 176.166 68.8889 175.511L71.209 172.35L68.0369 172.085ZM84.5389 168.75C83.6089 169.188 82.9459 169.965 82.6229 170.862C82.3009 171.759 82.3219 172.777 82.7589 173.707C83.1969 174.636 83.9709 175.303 84.8679 175.623C85.7649 175.945 86.7859 175.927 87.7159 175.488C88.6449 175.048 89.3089 174.274 89.6319 173.377C89.9539 172.48 89.9359 171.461 89.4949 170.531C89.0569 169.599 88.2829 168.935 87.3859 168.613C86.4639 168.281 85.4259 168.333 84.5389 168.75Z" fill="#F8F5EB"/>
<path fill-rule="evenodd" clip-rule="evenodd" d="M173.766 105.55C165.989 109.836 172.297 116.023 175.886 114.122C175.672 114.863 175.613 115.668 175.73 116.461L176.309 120.335C177.403 127.64 176.309 125.089 173.855 132.983C173.763 132.957 173.755 133.816 173.768 133.899L174.095 145.891C174.159 147.089 175.208 148.004 176.442 147.934C177.678 147.861 178.628 146.832 178.565 145.634L178.25 133.844C180.705 125.955 183.536 118.338 181.936 131.994L181.931 131.991C181.889 132.344 181.936 132.687 182.056 132.996L185.938 144.626C186.282 145.777 187.527 146.434 188.713 146.088C189.901 145.744 190.586 144.532 190.243 143.378L186.439 132.013L187.571 124.397L205.477 121.718L205.133 131.636H205.128C205.121 131.928 205.175 132.206 205.276 132.46L208.689 141.291C209.07 142.432 210.334 143.05 211.513 142.671C212.69 142.289 213.337 141.054 212.956 139.912L209.618 131.309C209.835 120.092 209.305 114.325 213.674 129L217.296 139.926C217.635 141.08 218.875 141.739 220.063 141.4C221.252 141.061 221.942 139.851 221.603 138.698L217.978 127.772L214.179 115.455L214.156 115.378C214.144 114.818 214.031 114.238 213.947 113.683C211.44 95.266 216.19 99.46 218.649 99.792C226.402 100.839 228.139 97.939 225.333 92.154C223.926 89.247 222.631 84.818 219.231 83.561L215.867 82.798C216.086 82.318 216.267 81.835 216.301 81.36C218.993 80.613 220.624 79.385 221.549 77.865C222.632 76.083 222.924 74.709 222.556 72.574C222.389 71.597 221.401 70.825 220.351 70.847C219.301 70.873 218.586 71.682 218.755 72.662C219.004 74.116 218.759 74.785 218.122 75.837C217.694 76.536 216.957 77.145 215.785 77.614C215.237 76.018 214.474 75.021 212.885 73.201C212.177 72.389 210.955 72.172 210.157 72.721C209.364 73.267 209.291 74.371 210 75.185C212.881 78.482 212.721 80.737 211.584 83.375C210.146 83.813 208.807 84.477 207.823 85.35C205.194 85.355 203.763 84.733 201.96 83.486C199.891 82.053 198.568 80.222 198.173 76.077C198.076 75.081 197.166 74.354 196.141 74.458C195.115 74.559 194.36 75.449 194.456 76.447C194.687 78.871 195.12 80.173 195.92 81.85C194.087 82.338 192.747 82.34 191.74 81.824C190.333 81.111 189.337 80.021 188.155 77.072C187.785 76.14 186.703 75.684 185.74 76.055C184.78 76.424 184.3 77.479 184.674 78.411C186.183 82.182 187.666 83.865 189.986 85.046C192.146 86.146 194.686 86.095 198.073 84.994C198.598 85.545 199.173 86.03 199.787 86.454C201.721 87.793 203.093 88.631 205.6 88.873C204.106 94.499 200.476 107.013 193.698 108.027L183.053 109.618C179.376 110.171 174.544 110.537 173.766 105.55ZM186.562 111.648C187.664 111.483 188.683 112.215 188.843 113.281C189.003 114.35 188.241 115.348 187.142 115.513C186.043 115.678 185.021 114.945 184.861 113.877C184.702 112.811 185.465 111.813 186.562 111.648ZM199.931 109.539C201.033 109.374 202.051 110.106 202.211 111.172C202.371 112.241 201.609 113.239 200.512 113.404C199.41 113.569 198.389 112.837 198.232 111.768C198.071 110.702 198.834 109.704 199.931 109.539ZM194.039 115.035C195.138 114.871 196.157 115.603 196.318 116.669C196.478 117.737 195.715 118.735 194.616 118.9C193.517 119.065 192.498 118.333 192.337 117.264C192.177 116.198 192.94 115.2 194.039 115.035ZM210.938 89.64L211.134 89.861C213.13 92.13 214.248 95.338 218.047 94.032C219.702 93.464 220.229 93.73 220.676 93.943C219.012 86.7 215.731 89.247 210.938 89.64Z" fill="#F8F5EB"/>
<path d="M0.868896 208.147C1.4939 208.044 2.14689 208.319 2.49789 208.892C2.95689 209.645 2.7189 210.631 1.9639 211.09L0.868896 211.762V208.147ZM0.868896 221.548L5.00192 219.163L5.16992 212.94C5.18892 212.058 5.92092 211.361 6.80292 211.38C7.68492 211.401 8.38492 212.133 8.36292 213.015L8.24789 217.289L11.2649 215.547C12.0279 215.109 13.0039 215.373 13.4439 216.136C13.8819 216.901 13.6179 217.878 12.8549 218.316L9.84891 220.051L13.6009 222.085C14.3779 222.508 14.6669 223.48 14.2459 224.26C13.8249 225.039 12.8499 225.326 12.0719 224.905L6.5929 221.933L1.9939 224.59C2.2049 225.273 2.32092 225.998 2.32092 226.751C2.32092 227.502 2.2059 228.227 1.9939 228.909L6.59491 231.564L12.0739 228.592C12.8509 228.17 13.8249 228.46 14.2459 229.239C14.6669 230.016 14.3799 230.99 13.6009 231.411L9.84891 233.445L12.8549 235.18C13.6199 235.62 13.8839 236.594 13.4439 237.36C13.0059 238.124 12.0289 238.388 11.2649 237.949L8.24991 236.21L8.36292 240.481C8.38392 241.364 7.68492 242.096 6.80292 242.117C5.92292 242.138 5.18992 241.439 5.16992 240.557L5.00491 234.334L0.868896 231.947V221.548ZM0.868896 241.732L1.96591 242.405C2.71891 242.864 2.95689 243.848 2.49789 244.603C2.14889 245.176 1.4939 245.451 0.868896 245.347V241.732V241.732Z" fill="#F8F5EB"/>
<path d="M244.134 218.317C243.369 217.877 243.105 216.901 243.546 216.138C243.986 215.373 244.96 215.109 245.726 215.547L248.741 217.289L248.628 213.015C248.606 212.132 249.303 211.403 250.186 211.382C251.069 211.361 251.801 212.058 251.822 212.94L251.987 219.163L256.595 221.825C256.661 221.752 256.727 221.684 256.795 221.615C257.748 220.662 258.965 219.972 260.326 219.664V214.343L255.025 211.091C254.272 210.632 254.032 209.646 254.493 208.893C254.952 208.14 255.936 207.902 256.692 208.361L260.326 210.59V207.121C260.326 206.234 261.044 205.516 261.931 205.516C262.816 205.516 263.533 206.234 263.533 207.121V210.59L267.167 208.361C267.348 208.251 267.542 208.181 267.739 208.149V211.764L263.533 214.345V219.666C264.863 219.968 266.098 220.652 267.064 221.617C267.132 221.685 267.198 221.753 267.263 221.824L267.739 221.55V231.944L267.266 231.671C267.2 231.744 267.132 231.815 267.064 231.883C266.11 232.836 264.896 233.524 263.533 233.832V239.154L267.739 241.734V245.35C267.543 245.317 267.349 245.247 267.169 245.138L263.533 242.907V246.378C263.533 247.263 262.815 247.983 261.931 247.983C261.046 247.983 260.328 247.262 260.328 246.378V242.907L256.694 245.138C255.939 245.597 254.955 245.359 254.493 244.606C254.034 243.85 254.272 242.867 255.025 242.408L260.328 239.155V233.833C258.966 233.527 257.749 232.838 256.795 231.884C256.727 231.816 256.658 231.745 256.593 231.675L251.987 234.334L251.822 240.557C251.8 241.437 251.069 242.136 250.186 242.115C249.306 242.094 248.607 241.362 248.628 240.482L248.741 236.208L245.726 237.949C244.963 238.387 243.987 238.123 243.546 237.36C243.108 236.596 243.369 235.619 244.134 235.18L247.14 233.443L243.389 231.409C242.609 230.987 242.323 230.016 242.744 229.237C243.166 228.458 244.139 228.171 244.916 228.592L250.398 231.562L254.995 228.907C254.786 228.226 254.67 227.499 254.67 226.749C254.67 225.996 254.785 225.271 254.997 224.588L250.398 221.931L244.916 224.903C244.139 225.327 243.165 225.037 242.744 224.258C242.32 223.481 242.61 222.507 243.389 222.085L247.138 220.051L244.134 218.317ZM261.93 222.695C260.809 222.695 259.795 223.149 259.063 223.881C258.329 224.615 257.874 225.627 257.874 226.748C257.874 227.868 258.328 228.88 259.063 229.615C259.795 230.349 260.809 230.801 261.93 230.801C263.047 230.801 264.062 230.349 264.794 229.615C265.528 228.88 265.982 227.868 265.982 226.748C265.982 225.628 265.528 224.616 264.794 223.881C264.041 223.128 262.996 222.695 261.93 222.695Z" fill="#F8F5EB"/>
<path d="M22.803 137.322C22.038 136.884 21.774 135.908 22.215 135.142C22.653 134.379 23.629 134.114 24.392 134.554L27.409 136.296L27.294 132.022C27.273 131.14 27.972 130.407 28.852 130.387C29.734 130.368 30.466 131.065 30.488 131.948L30.656 138.171L35.261 140.83C35.327 140.76 35.395 140.689 35.464 140.621C36.418 139.67 37.632 138.981 38.994 138.672V133.35L33.692 130.098C32.939 129.639 32.701 128.653 33.16 127.9C33.621 127.144 34.605 126.909 35.358 127.368L38.994 129.597V126.126C38.994 125.24 39.712 124.523 40.597 124.523C41.482 124.523 42.199 125.241 42.199 126.126V129.597L45.836 127.368C46.589 126.91 47.575 127.145 48.034 127.9C48.493 128.653 48.255 129.639 47.502 130.098L42.199 133.35V138.672C43.529 138.974 44.767 139.659 45.73 140.621C45.798 140.69 45.867 140.76 45.93 140.83L50.538 138.171L50.705 131.948C50.726 131.065 51.458 130.366 52.34 130.387C53.221 130.408 53.92 131.14 53.899 132.022L53.786 136.294L56.801 134.555C57.565 134.115 58.54 134.379 58.98 135.143C59.418 135.908 59.154 136.885 58.392 137.323L55.389 139.058L59.138 141.092C59.917 141.513 60.204 142.488 59.783 143.267C59.362 144.043 58.39 144.333 57.611 143.909L52.131 140.939L47.53 143.594C47.742 144.279 47.857 145.004 47.857 145.757C47.857 146.508 47.742 147.233 47.53 147.915L52.131 150.57L57.611 147.598C58.39 147.177 59.362 147.466 59.786 148.243C60.205 149.022 59.918 149.997 59.139 150.415L55.39 152.451L58.393 154.186C59.158 154.624 59.422 155.601 58.981 156.366C58.543 157.129 57.567 157.394 56.802 156.955L53.787 155.213L53.902 159.487C53.924 160.369 53.224 161.102 52.342 161.122C51.46 161.142 50.727 160.444 50.709 159.562L50.542 153.339L45.933 150.68C45.867 150.753 45.799 150.823 45.731 150.891C44.78 151.845 43.563 152.532 42.203 152.84V158.16L47.503 161.412C48.259 161.873 48.497 162.857 48.035 163.61C47.576 164.366 46.592 164.604 45.837 164.142L42.203 161.914V165.385C42.203 166.27 41.485 166.988 40.6 166.988C39.713 166.988 38.995 166.27 38.995 165.385V161.914L35.362 164.142C34.606 164.604 33.623 164.366 33.161 163.61C32.702 162.857 32.939 161.873 33.695 161.412L38.995 158.16V152.84C37.635 152.534 36.419 151.845 35.465 150.891C35.396 150.823 35.328 150.752 35.262 150.682L30.657 153.342L30.492 159.562C30.471 160.445 29.739 161.144 28.856 161.122C27.975 161.101 27.277 160.369 27.295 159.489L27.41 155.215L24.393 156.954C23.63 157.394 22.654 157.13 22.216 156.365C21.775 155.602 22.039 154.626 22.804 154.185L25.807 152.45L22.056 150.416C21.279 149.995 20.99 149.021 21.413 148.241C21.834 147.464 22.806 147.175 23.585 147.598L29.064 150.568L33.663 147.913C33.452 147.231 33.336 146.505 33.336 145.755C33.336 145.002 33.452 144.277 33.663 143.595L29.064 140.938L23.585 143.91C22.806 144.332 21.831 144.042 21.41 143.266C20.989 142.487 21.278 141.514 22.055 141.093L25.806 139.057L22.803 137.322ZM40.596 141.7C39.478 141.7 38.464 142.154 37.729 142.888C36.997 143.622 36.543 144.635 36.543 145.755C36.543 146.873 36.997 147.887 37.729 148.619C38.464 149.353 39.478 149.808 40.596 149.808C41.716 149.808 42.728 149.354 43.463 148.619C44.197 147.887 44.649 146.873 44.649 145.755C44.649 144.635 44.197 143.623 43.463 142.888C42.707 142.133 41.664 141.7 40.596 141.7Z" fill="#F8F5EB"/>
<path fill-rule="evenodd" clip-rule="evenodd" d="M145.053 209.679L123.812 206.236C125.961 206.165 128.053 205.909 128.95 205.742C130.889 205.38 133.252 205.071 135.755 203.973C146.078 199.444 136.729 180.959 120.155 201.562C110.844 176.522 96.494 191.366 104.738 198.818C106.764 200.651 108.765 201.793 110.492 202.751C111.288 203.191 113.192 204.095 115.209 204.841L93.968 201.4L92.231 212.116L115.974 215.964L117.655 205.601C118.944 205.963 119.912 206.119 121.252 206.185L119.573 216.548L143.315 220.396L145.053 209.679ZM122.214 203.335C127.509 202.831 128.451 202.977 133.405 200.802C136.654 199.378 136.373 196.478 133.942 195.923C131.513 195.37 127.347 196.848 122.214 203.335ZM117.643 202.595C114.075 201.016 111.133 200.116 108.193 197.457C105.413 194.946 106.394 191.791 108.769 191.721C111.142 191.651 114.608 194.238 117.643 202.595ZM138.216 222.952L125.584 220.904L128.929 229.029L124.853 228.055L122.457 231.604L119.033 219.871L115.437 242.061L134.616 245.17L138.216 222.952ZM109.052 218.226L96.915 216.258L93.311 238.473L111.839 241.477L115.433 219.305L106.383 231.838L105.298 227.696L101.127 227.268L109.052 218.226Z" fill="#F8F5EB"/>
<path fill-rule="evenodd" clip-rule="evenodd" d="M37.9699 106.751L39.5459 90.673C39.8289 87.778 40.5529 85.323 41.5919 83.327C35.2749 83.184 29.3009 81.48 24.2499 78.545C16.8759 74.259 11.4629 67.361 9.76586 58.871C9.47286 57.403 10.4249 55.973 11.8939 55.679C13.3629 55.385 14.7909 56.338 15.0849 57.807C15.6409 60.586 16.6899 63.161 18.1439 65.473C19.1759 64.397 20.0529 63.206 20.7409 61.931C21.7289 60.096 22.3319 58.09 22.4469 56.009C22.5249 54.519 23.7959 53.376 25.2829 53.453C26.7709 53.531 27.9169 54.802 27.8389 56.292C27.6769 59.227 26.8559 62.002 25.5109 64.499C24.4759 66.417 23.1369 68.18 21.5529 69.731C22.9289 71.103 24.4709 72.327 26.1539 73.382C27.9639 71.996 29.4729 70.308 30.5629 68.416C31.6759 66.486 32.3559 64.34 32.4809 62.085C32.5659 60.595 33.8409 59.453 35.3309 59.536C36.8209 59.621 37.9619 60.899 37.8799 62.389C37.7059 65.512 36.7739 68.466 35.2509 71.109C34.2229 72.888 32.9279 74.524 31.4189 75.974C36.7099 77.944 42.8009 78.502 49.0219 77.259C55.2409 76.014 60.6489 73.154 64.7749 69.304C62.8239 68.546 60.9999 67.532 59.3679 66.284C56.9459 64.432 54.9479 62.064 53.5859 59.247C52.9359 57.903 53.4989 56.286 54.8419 55.636C56.1839 54.984 57.8009 55.547 58.4529 56.891C59.4339 58.924 60.8889 60.642 62.6589 61.995C64.3939 63.323 66.4349 64.302 68.6389 64.886C69.7849 63.264 70.7389 61.541 71.4799 59.745C69.4229 58.924 67.5069 57.813 65.8149 56.438C63.6139 54.649 61.7899 52.406 60.5089 49.756C59.8649 48.412 60.4319 46.8 61.7749 46.155C63.1189 45.51 64.7339 46.077 65.3779 47.42C66.2849 49.299 67.6119 50.918 69.2289 52.231C70.3559 53.145 71.6229 53.907 72.9899 54.503C73.4399 51.81 73.4209 49.028 72.8649 46.248C72.5709 44.779 73.5239 43.351 74.9929 43.058C76.4619 42.764 77.8909 43.715 78.1849 45.183C79.8819 53.673 77.5399 62.122 72.3799 68.917C68.8469 73.568 63.9899 77.439 58.2109 80C59.9389 81.443 61.5509 83.432 62.9279 85.995L70.5659 100.23C79.1179 116.162 36.2069 124.744 37.9699 106.751ZM69.3699 86.992C74.5059 87.161 84.7629 84.407 82.1779 82.065C79.5939 79.721 76.6189 78.031 71.4829 77.862C66.3469 77.692 62.8069 79.298 63.5769 81.449C64.3489 83.6 64.2339 86.822 69.3699 86.992ZM33.9829 94.071C29.3089 96.201 18.7809 97.604 20.2659 94.447C21.7509 91.291 23.8459 88.587 28.5199 86.454C33.1969 84.321 37.0799 84.441 37.1979 86.724C37.3149 89.009 38.6589 91.939 33.9829 94.071ZM53.9889 102.097C51.9339 102.507 50.5409 104.211 50.8799 105.903C51.2159 107.593 53.1579 108.63 55.2149 108.219C57.2719 107.807 58.6659 106.103 58.3269 104.413C57.9879 102.723 56.0479 101.685 53.9889 102.097ZM47.1789 91.47C46.1549 91.675 45.5569 93.016 45.8469 94.466C46.1389 95.916 47.2049 96.926 48.2309 96.721C49.2569 96.514 49.8549 95.172 49.5629 93.725C49.2739 92.273 48.2079 91.265 47.1789 91.47ZM56.1889 89.668C55.1629 89.875 54.5649 91.215 54.8549 92.666C55.1439 94.116 56.2129 95.123 57.2399 94.919C58.2659 94.714 58.8639 93.372 58.5709 91.92C58.2819 90.47 57.2149 89.463 56.1889 89.668Z" fill="#F8F5EB"/>
<path fill-rule="evenodd" clip-rule="evenodd" d="M114.947 38.2141C115.868 38.4311 116.458 39.2571 116.27 40.0591C116.082 40.8621 115.183 41.3391 114.264 41.1231C113.346 40.9061 112.753 40.0801 112.944 39.2781C113.133 38.4761 114.03 37.9991 114.947 38.2141ZM108.913 76.2541C106.929 78.1271 104.62 80.0761 101.925 83.7931C101.688 83.5391 101.393 83.2851 101.033 83.0351C99.6451 82.0791 98.7881 82.3521 97.8581 82.6491C97.5941 82.7341 97.3121 82.8231 96.9611 82.6441C96.4081 82.3621 96.3611 81.936 96.3161 81.531C96.2251 80.713 96.1371 79.9231 95.1561 79.1321C94.4431 78.5551 93.72 78.2591 93.024 78.1341L99.9391 67.962C100.887 66.566 102.556 61.2851 100.92 59.5641L93.5461 51.8091C93.3181 51.3051 93.1411 50.644 93.7231 50.156C93.8051 50.088 93.9721 50.1301 94.1511 50.1781C95.0501 50.4111 96.0221 50.6651 97.3941 49.8201C99.1241 48.7561 99.0341 47.6281 98.9521 46.5531C98.9281 46.2541 98.9051 45.9641 98.9991 45.8731C99.3611 45.5081 99.9191 45.4651 100.465 45.5391L106.714 51.7431C108.569 53.8491 111.386 51.6681 108.421 48.6811C106.267 46.5131 105.493 43.5531 106.354 39.8861C107.437 35.2731 113.736 30.8881 119.963 32.2441L119.972 32.2471V32.2441L119.981 32.2471L120.007 32.2541L120.038 32.2611L120.08 32.2701L120.12 32.2791L120.149 32.2861L120.177 32.2931L120.184 32.2961L120.195 32.298V32.3011C126.374 33.8591 130.062 40.5881 128.976 45.2031C128.099 48.9341 125.911 51.0341 123.06 52.2171C119.254 53.7961 120.723 56.7381 123.375 55.6581L131.262 52.7751C131.787 52.9521 132.267 53.2381 132.43 53.7281C132.472 53.8531 132.324 54.1021 132.169 54.3581C131.616 55.2841 131.035 56.2531 132.107 57.9761C132.962 59.3431 133.946 59.5511 134.854 59.7411C135.035 59.7791 135.205 59.8141 135.247 59.9131C135.549 60.6071 135.097 61.1231 134.671 61.4711L125.078 65.2391C122.691 66.1761 121.992 71.5421 122.218 73.1971L123.882 85.3771C123.265 85.2361 122.568 85.215 121.782 85.389C120.551 85.659 120.12 86.3281 119.676 87.0201C119.457 87.3621 119.224 87.7221 118.6 87.7281C118.21 87.7331 117.996 87.526 117.798 87.333C117.1 86.655 116.454 86.0281 114.783 86.2661C114.246 86.3411 113.795 86.4711 113.418 86.6401C112.658 82.0861 111.443 79.214 110.49 76.626C110.148 75.699 109.631 75.5761 108.913 76.2541ZM99.8541 86.6531C99.0161 87.8021 98.3831 88.647 98.0981 88.945C94.3231 92.92 86.2261 88.0251 91.1411 80.8511C91.8141 80.6321 92.6971 80.4581 93.3111 80.9541C93.4221 81.0431 93.4551 81.3281 93.4861 81.6221C93.6051 82.6981 93.7301 83.8281 95.6581 84.8141C97.1831 85.5951 98.1061 85.3041 98.9581 85.0301C99.1251 84.9761 99.2821 84.9271 99.3771 84.9931C100.054 85.4571 99.9901 86.1371 99.8541 86.6531ZM90.8021 49.3081C85.3671 44.4501 92.9181 38.7331 98.0131 43.3031C97.5991 43.4921 97.1941 43.7601 96.8151 44.1411C95.9891 44.9721 96.0511 45.7551 96.1171 46.5721C96.1471 46.9801 96.1801 47.4081 95.6781 47.7161C95.3631 47.9091 95.0641 47.8311 94.7861 47.7601C93.8071 47.5031 92.9031 47.269 91.6981 48.281C91.2961 48.62 91.0071 48.9661 90.8021 49.3081ZM134.457 51.8641C141.97 49.4421 145.87 58.5881 138.239 60.4521C138.211 60.0551 138.105 59.6161 137.893 59.1341C137.267 57.6931 136.353 57.5011 135.362 57.2931C135.082 57.2341 134.776 57.1691 134.584 56.8551C134.27 56.3561 134.492 55.9871 134.701 55.6361C135.122 54.9351 135.525 54.2591 135.155 53.1481C134.987 52.6401 134.747 52.2171 134.457 51.8641ZM124.332 88.4551L124.351 88.587C125.61 97.255 116.139 98.0601 114.524 92.8051C114.428 92.4851 114.284 91.7481 114.108 90.7411C114.131 90.6231 114.15 90.4961 114.171 90.3641C114.254 89.8281 114.395 88.8981 115.395 88.7571C115.508 88.7411 115.625 88.8531 115.753 88.9781C116.395 89.6021 117.09 90.2731 118.803 90.2541C120.968 90.2281 121.585 89.2721 122.171 88.3621C122.328 88.1121 122.487 87.8701 122.623 87.8421C123.26 87.7001 123.859 88.0481 124.332 88.4551ZM111.796 67.988C112.791 68.221 113.431 69.1161 113.227 69.9841C113.022 70.8551 112.052 71.3681 111.057 71.1351C110.063 70.9021 109.421 70.008 109.629 69.139C109.831 68.269 110.803 67.755 111.796 67.988ZM113.126 62.0971C114.121 62.3301 114.762 63.2241 114.557 64.0931C114.352 64.9641 113.38 65.4791 112.387 65.2471C111.393 65.0111 110.754 64.1191 110.956 63.2491C111.161 62.3801 112.133 61.8641 113.126 62.0971ZM114.456 56.2061C115.452 56.4391 116.092 57.3331 115.887 58.2041C115.682 59.0721 114.71 59.5881 113.717 59.3551C112.721 59.1221 112.082 58.2271 112.286 57.3571C112.49 56.4881 113.462 55.9731 114.456 56.2061ZM122.028 39.867C122.948 40.083 123.539 40.91 123.35 41.712C123.162 42.517 122.263 42.9921 121.345 42.7761C120.427 42.5621 119.834 41.7331 120.025 40.9311C120.213 40.1281 121.109 39.653 122.028 39.867ZM114.63 44.2731C114.294 43.6301 113.446 43.3191 112.738 43.5831C112.031 43.8451 111.733 44.5791 112.072 45.2221C112.416 45.8761 112.865 46.4501 113.388 46.9281C114.255 47.7261 115.332 48.2861 116.464 48.5521C117.627 48.8231 118.846 48.7831 119.957 48.3681C120.534 48.1541 121.073 47.8481 121.551 47.4411C122.099 46.9701 122.09 46.1731 121.527 45.6571C120.965 45.1421 120.063 45.1041 119.515 45.5721C119.268 45.7841 119.002 45.9371 118.731 46.0381C118.202 46.2361 117.609 46.2521 117.036 46.1181C116.436 45.9791 115.855 45.6701 115.377 45.2301C115.075 44.9581 114.821 44.6341 114.63 44.2731Z" fill="#F8F5EB"/>
<path fill-rule="evenodd" clip-rule="evenodd" d="M49.2219 182.415C48.9539 183.528 49.2899 184.46 47.3389 185.037C39.7909 187.826 34.2319 195.08 34.2319 203.857C34.2319 214.935 43.2109 223.914 54.2869 223.914C65.3649 223.914 74.3449 214.935 74.3449 203.857C74.3449 195.127 68.811 187.76 61.075 184.978C59.432 184.432 59.7709 183.505 59.4249 182.415H49.2219V182.415ZM57.3259 200.213L54.9509 201.854C54.5649 202.169 54.0019 202.207 53.5689 201.913L53.7029 201.717V201.714L53.5689 201.91L51.3489 200.399L51.9959 202.875C52.1609 203.346 52.0029 203.887 51.5799 204.193L51.4409 204V204.002L51.5769 204.193L49.1319 205.954L52.015 206.097C52.514 206.083 52.9839 206.394 53.1469 206.893L52.9219 206.966V206.968L53.1469 206.893L54.0889 209.755L55.0939 207.048C55.2279 206.568 55.6679 206.213 56.1909 206.208L56.196 206.446L56.1929 206.208L59.2059 206.171L56.9279 204.398C56.5119 204.125 56.3039 203.6 56.4549 203.099L56.683 203.167V203.165L56.4569 203.099L57.3259 200.213ZM49.6979 193.58C49.2269 193.152 49.1939 192.42 49.6229 191.95C50.0509 191.479 50.781 191.446 51.252 191.875L53.0049 193.473V190.428C53.0049 189.79 53.5229 189.272 54.1599 189.272C54.7979 189.272 55.3159 189.79 55.3159 190.428V193.298L56.808 191.806C57.26 191.356 57.9889 191.356 58.4439 191.806C58.8939 192.258 58.8939 192.989 58.4439 193.442L55.3159 196.568V198.804L57.9769 196.966C58.4359 196.648 59.0459 196.712 59.4319 197.086L59.4689 197.095C60.0789 197.278 60.4249 197.924 60.2409 198.533L59.3139 201.607L61.3569 200.962L63.2379 196.904C63.5039 196.325 64.1919 196.073 64.7709 196.342C65.3469 196.608 65.6019 197.293 65.3329 197.872L64.3349 200.023L67.239 199.108C67.849 198.917 68.4989 199.254 68.6919 199.864C68.8829 200.473 68.5439 201.12 67.9339 201.314L65.1989 202.177L67.0699 203.152C67.6369 203.446 67.857 204.143 67.562 204.71C67.265 205.275 66.5689 205.497 66.0029 205.202L62.0799 203.158L59.9469 203.831L62.5009 205.818C62.9409 206.159 63.0659 206.759 62.8259 207.24V207.282C62.8329 207.918 62.3239 208.44 61.6859 208.447L58.476 208.489L59.7069 210.243L64.1419 210.817C64.7719 210.897 65.219 211.476 65.14 212.107C65.06 212.74 64.4809 213.187 63.8499 213.105L61.4969 212.801L63.243 215.295C63.61 215.817 63.4829 216.538 62.9609 216.905C62.4389 217.272 61.716 217.143 61.351 216.62L59.7029 214.269L59.338 216.347C59.225 216.978 58.6269 217.397 57.9979 217.286C57.3699 217.173 56.9509 216.575 57.0609 215.946L57.8279 211.592L56.5459 209.761L55.4179 212.793C55.2249 213.315 54.6909 213.614 54.1579 213.53L54.1209 213.544C53.5159 213.742 52.8639 213.412 52.6639 212.807L51.6609 209.759L50.3569 211.458L51.1459 215.859C51.2569 216.487 50.8399 217.085 50.2139 217.198C49.5879 217.311 48.9849 216.894 48.8749 216.269L48.4559 213.934L46.6029 216.351C46.2149 216.858 45.4879 216.952 44.9819 216.563C44.4749 216.175 44.3789 215.45 44.7679 214.941L46.5169 212.665L44.4249 212.94C43.7919 213.025 43.2099 212.578 43.1279 211.944C43.0429 211.314 43.4899 210.732 44.1229 210.65L48.5079 210.071L49.8659 208.299L46.6369 208.136C46.0789 208.108 45.6339 207.686 45.5539 207.155L45.5309 207.124C45.1589 206.606 45.277 205.886 45.795 205.514L48.3999 203.639L46.3879 202.907L42.4259 204.983C41.8619 205.28 41.165 205.06 40.868 204.498C40.572 203.934 40.7909 203.236 41.3529 202.94L43.4549 201.838L40.5929 200.798C39.9929 200.579 39.6849 199.915 39.9009 199.318C40.1199 198.718 40.7839 198.407 41.3839 198.625L44.0809 199.607L43.1889 197.693C42.9189 197.116 43.1699 196.427 43.7469 196.159C44.3249 195.889 45.0119 196.138 45.2809 196.717L47.1519 200.725L49.2509 201.49L48.4349 198.36C48.3289 197.955 48.454 197.543 48.726 197.263L48.7469 197.232C49.1049 196.705 49.8229 196.571 50.3499 196.928L53.0029 198.735V196.593L49.6979 193.58Z" fill="#F8F5EB"/>
<path fill-rule="evenodd" clip-rule="evenodd" d="M54.224 174.34C50.399 162.826 58.305 162.454 54.224 174.34V174.34ZM59.259 176.279H56.484C56.545 176.126 56.604 175.966 56.663 175.799C57.021 174.782 57.089 174.58 57.202 174.257C62.39 159.179 46.333 159.404 51.262 174.222C51.427 174.719 51.551 175.093 51.78 175.816H51.784C51.836 175.978 51.888 176.132 51.944 176.28H49.32C48.856 176.28 48.479 176.661 48.479 177.12V179.919C48.479 180.38 48.858 180.761 49.32 180.761H59.259C59.718 180.761 60.099 180.382 60.099 179.919V177.12C60.099 176.655 59.719 176.279 59.259 176.279Z" fill="#F8F5EB"/>
<path fill-rule="evenodd" clip-rule="evenodd" d="M154.934 61.4059C154.731 62.5309 155.125 63.442 153.209 64.136C145.844 67.37 140.728 74.943 141.253 83.706C141.914 94.766 151.418 103.192 162.476 102.528C173.533 101.864 181.959 92.365 181.298 81.305C180.774 72.592 174.807 65.5679 166.92 63.2549C165.247 62.8079 165.532 61.862 165.119 60.793L154.934 61.4059ZM164.087 78.685L161.816 80.464C161.449 80.803 160.888 80.876 160.439 80.608L160.562 80.403L160.439 80.6049L158.135 79.231L158.928 81.662C159.121 82.124 158.997 82.674 158.592 83.004L158.441 82.821L158.589 83.002L156.255 84.9059L159.14 84.878C159.636 84.834 160.126 85.116 160.319 85.603L160.096 85.69V85.693L160.317 85.606L161.43 88.405L162.271 85.644C162.377 85.156 162.793 84.777 163.316 84.737L163.333 84.9749L163.316 84.739L166.322 84.52L163.943 82.8889C163.51 82.6399 163.272 82.129 163.392 81.618L163.625 81.672L163.395 81.618L164.087 78.685ZM156.077 72.521C155.581 72.123 155.503 71.396 155.903 70.9C156.303 70.403 157.028 70.326 157.525 70.726L159.37 72.216L159.188 69.177C159.148 68.539 159.635 67.991 160.271 67.953C160.909 67.915 161.457 68.4 161.495 69.038L161.667 71.9019L163.068 70.323C163.491 69.845 164.221 69.803 164.699 70.227C165.177 70.651 165.219 71.38 164.795 71.858L161.863 75.1649L161.997 77.399L164.544 75.403C164.984 75.059 165.596 75.0849 166.003 75.4359L166.043 75.4449C166.662 75.5899 167.043 76.2139 166.897 76.8329L166.159 79.956L168.157 79.1909L169.793 75.025C170.023 74.432 170.692 74.14 171.285 74.373C171.878 74.603 172.172 75.2719 171.939 75.8669L171.075 78.075L173.918 76.985C174.513 76.76 175.182 77.058 175.41 77.654C175.639 78.25 175.34 78.918 174.744 79.146L172.06 80.172L173.988 81.0309C174.572 81.2919 174.833 81.974 174.572 82.558C174.312 83.14 173.628 83.401 173.047 83.142L169.01 81.339L166.921 82.137L169.59 83.968C170.049 84.283 170.209 84.875 170 85.368L170.003 85.408C170.048 86.044 169.569 86.594 168.934 86.642L165.733 86.875L167.065 88.551L171.528 88.8589C172.163 88.9019 172.644 89.452 172.601 90.088C172.556 90.723 172.006 91.203 171.37 91.159L169.005 90.999L170.9 93.383C171.295 93.882 171.21 94.609 170.711 95.008C170.213 95.406 169.485 95.321 169.087 94.822L167.303 92.572L167.061 94.6689C166.99 95.3039 166.416 95.7589 165.783 95.6859C165.148 95.6129 164.693 95.038 164.766 94.405L165.272 90.011L163.883 88.2599L162.94 91.3549C162.777 91.8899 162.262 92.219 161.725 92.168L161.69 92.1819C161.097 92.4169 160.426 92.128 160.191 91.535L159.007 88.5529L157.807 90.328L158.856 94.675C159.007 95.293 158.625 95.917 158.009 96.068C157.388 96.216 156.764 95.837 156.613 95.219L156.058 92.9149L154.352 95.4359C153.996 95.9659 153.276 96.1039 152.747 95.7469C152.22 95.3899 152.078 94.672 152.439 94.142L154.046 91.765L151.972 92.1649C151.346 92.2839 150.741 91.875 150.621 91.249C150.499 90.623 150.908 90.016 151.534 89.896L155.877 89.055L157.129 87.205L153.894 87.236C153.336 87.241 152.866 86.848 152.755 86.323L152.729 86.292C152.327 85.798 152.402 85.071 152.897 84.668L155.385 82.641L153.332 82.0309L149.503 84.34C148.957 84.667 148.246 84.493 147.916 83.947C147.589 83.403 147.763 82.693 148.309 82.365L150.341 81.1389L147.422 80.271C146.81 80.09 146.459 79.447 146.643 78.835C146.824 78.222 147.47 77.872 148.081 78.056L150.832 78.875L149.827 77.017C149.523 76.457 149.731 75.756 150.293 75.452C150.853 75.148 151.554 75.356 151.858 75.916L153.964 79.8069L156.106 80.4449L155.103 77.369C154.973 76.972 155.072 76.553 155.328 76.256L155.348 76.2249C155.675 75.6789 156.381 75.5 156.929 75.827L159.683 77.472L159.555 75.332L156.077 72.521Z" fill="#F8F5EB"/>
<path fill-rule="evenodd" clip-rule="evenodd" d="M159.443 53.045C154.936 41.781 162.805 40.938 159.443 53.045V53.045ZM164.584 54.678L161.813 54.846C161.865 54.688 161.917 54.526 161.964 54.354C162.261 53.318 162.317 53.114 162.409 52.784C166.686 37.422 150.669 38.608 156.478 53.104C156.671 53.591 156.82 53.959 157.09 54.665H157.095C157.157 54.822 157.22 54.973 157.281 55.117L154.664 55.275C154.201 55.303 153.848 55.705 153.875 56.164L154.043 58.958C154.071 59.417 154.473 59.777 154.932 59.749L164.853 59.153C165.314 59.128 165.67 58.725 165.642 58.264L165.474 55.47C165.447 55.005 165.045 54.65 164.584 54.678Z" fill="#F8F5EB"/>
<path fill-rule="evenodd" clip-rule="evenodd" d="M234.333 148.433C229.388 136.06 237.956 135.017 234.67 148.452C234.557 148.443 234.447 148.435 234.333 148.433ZM267.739 191.782V197.179C266.292 201.978 261.246 204.824 256.366 203.534C250.221 201.908 243.165 201.348 237.02 199.721C229.608 197.758 225.489 190.166 227.108 182.674L230.766 165.739L230.731 165.728V165.735C228.924 165.117 227.422 163.847 226.492 162.278C225.541 160.676 225.178 158.745 225.682 156.843C225.72 156.704 225.767 156.549 225.825 156.375L225.82 156.373L226.621 154.038C227.301 152.059 228.642 150.435 230.328 149.456C230.575 149.31 230.829 149.182 231.091 149.068C224.068 132.327 242.667 130.643 237.992 148.595L237.841 149.169L257.988 154.5C258.202 154.556 258.378 154.611 258.517 154.658C260.325 155.277 261.829 156.543 262.758 158.113C263.707 159.718 264.067 161.646 263.565 163.55C263.528 163.689 263.48 163.844 263.419 164.018L263.426 164.021L262.623 166.355C261.945 168.337 260.603 169.958 258.919 170.938C257.259 171.903 255.27 172.247 253.249 171.712L253.058 171.661L252.114 178.169C251.688 181.107 255.044 183.787 257.913 184.547L261.161 185.406C264.417 186.265 266.826 188.764 267.739 191.782ZM233.842 166.286C235.614 166.964 246.02 170.242 250.447 171.068C249.971 174.768 246.109 183.836 254.32 186.251C256.394 186.861 259.442 187.505 261.896 188.727C268.907 192.208 263.791 200.737 259.938 200.627C252.712 200.419 246.783 198.758 239.316 196.999C230.069 194.822 229.523 187.149 230.652 180.062C231.549 174.451 232.788 171.619 233.842 166.286Z" fill="#F8F5EB"/>
<path fill-rule="evenodd" clip-rule="evenodd" d="M210.787 204.219C210.519 205.332 210.858 206.266 208.904 206.843C201.356 209.63 195.797 216.884 195.797 225.663C195.797 236.741 204.777 245.72 215.855 245.72C226.931 245.72 235.912 236.741 235.912 225.663C235.912 216.933 230.377 209.566 222.64 206.784C220.997 206.238 221.336 205.311 220.993 204.219H210.787ZM218.892 222.018L216.517 223.658C216.132 223.973 215.568 224.014 215.135 223.72L215.269 223.522L215.135 223.717L212.916 222.206L213.563 224.683C213.728 225.153 213.572 225.694 213.146 226.001L213.007 225.808L213.144 226.001L210.698 227.759L213.581 227.905C214.08 227.888 214.55 228.202 214.715 228.698L214.487 228.773H214.49L214.714 228.7L215.655 231.56L216.66 228.855C216.797 228.373 217.235 228.02 217.76 228.012L217.762 228.25H217.765L217.76 228.014L220.772 227.974L218.493 226.204C218.077 225.928 217.87 225.404 218.02 224.902L218.249 224.97L218.023 224.902L218.892 222.018ZM211.266 215.387C210.793 214.957 210.76 214.227 211.188 213.757C211.616 213.286 212.346 213.25 212.817 213.682L214.571 215.278V212.232C214.571 211.594 215.089 211.076 215.726 211.076C216.364 211.076 216.882 211.594 216.882 212.232V215.103L218.374 213.611C218.826 213.159 219.558 213.159 220.01 213.611C220.46 214.063 220.46 214.795 220.01 215.244L216.883 218.372V220.605L219.545 218.77C220.004 218.452 220.613 218.513 220.999 218.887L221.039 218.899C221.649 219.082 221.992 219.728 221.809 220.337L220.883 223.411L222.924 222.766L224.804 218.706C225.073 218.13 225.757 217.878 226.336 218.144C226.915 218.413 227.167 219.097 226.898 219.676L225.9 221.827L228.805 220.909C229.414 220.719 230.064 221.058 230.257 221.665C230.448 222.275 230.109 222.924 229.502 223.118L226.765 223.979L228.636 224.953C229.203 225.25 229.422 225.947 229.128 226.512C228.834 227.079 228.134 227.298 227.57 227.004L223.646 224.963L221.514 225.634L224.067 227.62C224.51 227.964 224.632 228.564 224.392 229.044V229.084C224.401 229.72 223.891 230.242 223.253 230.251L220.044 230.294L221.273 232.047L225.707 232.619C226.34 232.699 226.787 233.278 226.705 233.909C226.625 234.542 226.046 234.99 225.413 234.907L223.064 234.603L224.808 237.098C225.176 237.62 225.048 238.343 224.526 238.708C224.003 239.075 223.283 238.948 222.916 238.423L221.271 236.071L220.904 238.152C220.793 238.78 220.193 239.199 219.565 239.089C218.937 238.978 218.518 238.378 218.626 237.75L219.396 233.395L218.113 231.564L216.988 234.596C216.792 235.12 216.258 235.417 215.726 235.334L215.688 235.346C215.083 235.543 214.431 235.214 214.234 234.609L213.229 231.561L211.925 233.26L212.714 237.664C212.827 238.29 212.408 238.89 211.782 239.003C211.156 239.116 210.556 238.699 210.443 238.074L210.024 235.736L208.172 238.154C207.783 238.66 207.056 238.756 206.55 238.368C206.043 237.977 205.947 237.252 206.338 236.746L208.085 234.467L205.993 234.745C205.36 234.828 204.779 234.383 204.696 233.75C204.614 233.117 205.058 232.538 205.691 232.453L210.074 231.877L211.437 230.102L208.205 229.94C207.647 229.911 207.202 229.492 207.125 228.961L207.099 228.928C206.73 228.41 206.847 227.689 207.365 227.318L209.967 225.445L207.955 224.713L203.994 226.787C203.429 227.084 202.732 226.867 202.436 226.303C202.14 225.74 202.359 225.042 202.921 224.744L205.023 223.645L202.161 222.604C201.561 222.385 201.253 221.722 201.471 221.122C201.688 220.522 202.351 220.213 202.951 220.43L205.648 221.411L204.756 219.5C204.485 218.921 204.737 218.234 205.314 217.963C205.893 217.695 206.58 217.944 206.85 218.523L208.719 222.531L210.821 223.294L210.002 220.166C209.896 219.758 210.021 219.347 210.294 219.069L210.315 219.036C210.675 218.512 211.393 218.375 211.918 218.735L214.571 220.54V218.4L211.266 215.387Z" fill="#F8F5EB"/>
<path fill-rule="evenodd" clip-rule="evenodd" d="M215.792 196.146C211.964 184.632 219.87 184.26 215.792 196.146V196.146ZM220.824 198.083H218.049C218.11 197.93 218.169 197.772 218.228 197.603C218.586 196.586 218.654 196.387 218.765 196.062C223.955 180.985 207.896 181.208 212.827 196.027C212.991 196.526 213.116 196.9 213.345 197.62H213.352C213.401 197.783 213.455 197.936 213.507 198.084H210.885C210.424 198.084 210.045 198.466 210.045 198.925V201.726C210.045 202.187 210.426 202.566 210.885 202.566H220.824C221.285 202.566 221.664 202.19 221.664 201.726V198.925C221.664 198.462 221.288 198.083 220.824 198.083Z" fill="#F8F5EB"/>
<path fill-rule="evenodd" clip-rule="evenodd" d="M241.983 120.74L239.686 119.153C239.312 118.847 238.768 118.809 238.349 119.094L238.478 119.285L238.349 119.096L236.202 120.558L236.828 118.164C236.988 117.708 236.837 117.183 236.426 116.886L236.291 117.074L236.423 116.888L234.058 115.187L236.847 115.046C237.329 115.063 237.784 114.761 237.941 114.279L237.722 114.208L237.725 114.206L237.941 114.279L238.853 111.511L239.825 114.128C239.956 114.592 240.38 114.935 240.886 114.943L240.888 114.712H240.891L240.888 114.94L243.802 114.978L241.599 116.692C241.194 116.955 240.994 117.464 241.14 117.949L241.361 117.883L241.142 117.949L241.983 120.74ZM234.607 127.154C234.15 127.57 234.117 128.277 234.532 128.731C234.946 129.187 235.652 129.22 236.109 128.806L237.804 127.26V130.207C237.804 130.824 238.306 131.325 238.922 131.325C239.538 131.325 240.04 130.824 240.04 130.207V127.43L241.483 128.873C241.921 129.311 242.627 129.311 243.065 128.873C243.501 128.438 243.501 127.729 243.065 127.294L240.041 124.27V122.107L242.616 123.884C243.061 124.193 243.65 124.131 244.024 123.769L244.061 123.759C244.65 123.58 244.984 122.956 244.805 122.368L243.91 119.398L245.885 120.02L247.704 123.946C247.961 124.504 248.624 124.749 249.185 124.49C249.743 124.231 249.987 123.57 249.732 123.01L248.767 120.929L251.575 121.814C252.163 122 252.792 121.673 252.978 121.084C253.164 120.496 252.837 119.867 252.249 119.682L249.601 118.846L251.411 117.905C251.96 117.62 252.171 116.945 251.886 116.399C251.602 115.851 250.926 115.636 250.38 115.923L246.585 117.895L244.524 117.246L246.992 115.325C247.418 114.992 247.539 114.414 247.305 113.948V113.911C247.315 113.294 246.821 112.788 246.203 112.781L243.101 112.741L244.287 111.044L248.578 110.491C249.19 110.413 249.621 109.853 249.543 109.244C249.466 108.632 248.905 108.199 248.296 108.279L246.02 108.573L247.71 106.158C248.063 105.652 247.941 104.955 247.437 104.6C246.931 104.247 246.232 104.369 245.877 104.876L244.286 107.152L243.931 105.14C243.825 104.532 243.246 104.125 242.636 104.233C242.029 104.339 241.624 104.921 241.73 105.528L242.474 109.741L241.234 111.511L240.144 108.579C239.956 108.072 239.438 107.786 238.925 107.866L238.89 107.854C238.304 107.661 237.673 107.982 237.48 108.565L236.51 111.514L235.249 109.87L236.009 105.61C236.12 105.005 235.715 104.424 235.11 104.315C234.506 104.204 233.924 104.609 233.814 105.214L233.411 107.473L231.618 105.136C231.242 104.646 230.541 104.555 230.051 104.931C229.561 105.305 229.469 106.007 229.844 106.496L231.534 108.699L229.51 108.433C228.898 108.353 228.338 108.783 228.258 109.395C228.175 110.007 228.606 110.567 229.22 110.65L233.459 111.208L234.775 112.924L231.652 113.079C231.11 113.108 230.682 113.515 230.604 114.028L230.58 114.061C230.222 114.56 230.338 115.257 230.837 115.617L233.356 117.43L231.409 118.138L227.577 116.13C227.033 115.845 226.355 116.055 226.07 116.598C225.785 117.147 225.995 117.82 226.541 118.107L228.572 119.171L225.805 120.178C225.223 120.39 224.924 121.03 225.136 121.612C225.347 122.19 225.988 122.489 226.569 122.28L229.177 121.329L228.316 123.182C228.054 123.74 228.297 124.403 228.855 124.665C229.415 124.926 230.081 124.684 230.34 124.126L232.147 120.25L234.181 119.509L233.39 122.538C233.286 122.931 233.409 123.329 233.672 123.6L233.691 123.628C234.039 124.136 234.734 124.269 235.242 123.922L237.807 122.174V124.246L234.607 127.154Z" fill="#F8F5EB"/>
<path fill-rule="evenodd" clip-rule="evenodd" d="M133.144 169.014L130.849 170.6C130.475 170.906 129.929 170.944 129.512 170.659L129.642 170.466H129.64L129.512 170.654L127.366 169.193L127.99 171.589C128.15 172.045 127.999 172.568 127.587 172.865L127.453 172.677V172.679L127.587 172.865L125.222 174.567L128.009 174.706C128.492 174.692 128.948 174.993 129.106 175.473L128.887 175.546V175.549L129.103 175.476L130.016 178.241L130.988 175.626C131.118 175.162 131.541 174.816 132.05 174.811L132.053 175.042L132.05 174.814L134.964 174.777L132.761 173.063C132.358 172.798 132.158 172.291 132.304 171.804L132.525 171.87L132.306 171.804L133.144 169.014ZM125.768 162.598C125.314 162.184 125.28 161.478 125.695 161.021C126.109 160.567 126.815 160.534 127.27 160.948L128.967 162.492V159.548C128.967 158.931 129.466 158.43 130.082 158.43C130.701 158.43 131.202 158.932 131.202 159.548V162.325L132.645 160.88C133.08 160.444 133.788 160.444 134.224 160.88C134.662 161.315 134.662 162.024 134.224 162.461L131.202 165.485V167.646L133.774 165.869C134.219 165.563 134.809 165.625 135.182 165.984L135.219 165.996C135.81 166.172 136.142 166.796 135.965 167.384L135.071 170.357L137.046 169.736L138.863 165.81C139.122 165.25 139.786 165.005 140.343 165.266C140.903 165.523 141.148 166.187 140.89 166.747L139.925 168.825L142.735 167.94C143.323 167.757 143.952 168.081 144.138 168.669C144.324 169.26 143.995 169.889 143.406 170.075L140.758 170.908L142.57 171.852C143.117 172.137 143.331 172.812 143.046 173.359C142.761 173.907 142.086 174.119 141.537 173.834L137.743 171.86L135.681 172.509L138.152 174.43C138.578 174.762 138.696 175.343 138.465 175.809V175.847C138.472 176.463 137.98 176.967 137.363 176.974L134.258 177.014L135.446 178.711L139.735 179.267C140.347 179.344 140.78 179.905 140.702 180.514C140.622 181.126 140.064 181.557 139.452 181.479L137.178 181.185L138.868 183.6C139.221 184.106 139.098 184.803 138.592 185.156C138.086 185.509 137.389 185.387 137.034 184.88L135.443 182.606L135.088 184.616C134.982 185.226 134.401 185.631 133.794 185.524C133.187 185.416 132.779 184.834 132.888 184.227L133.629 180.016L132.389 178.243L131.302 181.179C131.111 181.683 130.596 181.972 130.082 181.89L130.045 181.902C129.461 182.095 128.831 181.777 128.637 181.191L127.665 178.244L126.404 179.887L127.167 184.145C127.277 184.752 126.873 185.331 126.265 185.441C125.66 185.55 125.079 185.147 124.97 184.54L124.568 182.283L122.772 184.62C122.398 185.107 121.697 185.202 121.207 184.825C120.715 184.449 120.623 183.747 121 183.258L122.69 181.055L120.666 181.321C120.054 181.404 119.491 180.973 119.412 180.361C119.332 179.749 119.762 179.187 120.374 179.107L124.613 178.549L125.931 176.833L122.806 176.675C122.267 176.65 121.836 176.242 121.761 175.729L121.738 175.696C121.378 175.197 121.493 174.498 121.992 174.14L124.513 172.325L122.567 171.616L118.735 173.623C118.188 173.911 117.513 173.701 117.226 173.155C116.941 172.609 117.151 171.934 117.697 171.649L119.728 170.585L116.963 169.578C116.382 169.367 116.083 168.724 116.295 168.145C116.504 167.563 117.147 167.265 117.726 167.477L120.336 168.426L119.473 166.576C119.211 166.018 119.454 165.352 120.014 165.091C120.574 164.829 121.238 165.072 121.499 165.632L123.306 169.508L125.34 170.247L124.549 167.22C124.446 166.827 124.566 166.429 124.831 166.158L124.85 166.127C125.196 165.619 125.89 165.489 126.399 165.835L128.967 167.582V165.51L125.768 162.598Z" fill="#F8F5EB"/>
<path fill-rule="evenodd" clip-rule="evenodd" d="M43.7429 43.984L41.4459 42.397C41.0719 42.091 40.5289 42.053 40.1099 42.338L40.2399 42.529L40.1099 42.343L37.9629 43.802L38.5889 41.409C38.7489 40.952 38.5979 40.43 38.1859 40.133L38.0519 40.319L38.1839 40.133L35.8209 38.432L38.6079 38.293C39.0899 38.307 39.5449 38.005 39.7049 37.526L39.4839 37.453H39.4869L39.7029 37.524L40.6139 34.756L41.5859 37.374C41.7179 37.837 42.1409 38.181 42.6479 38.188L42.6499 37.957H42.6529L42.6499 38.185L45.5629 38.223L43.3599 39.936C42.9559 40.2 42.7559 40.711 42.9019 41.195L43.1229 41.127V41.13L42.9039 41.195L43.7429 43.984ZM36.3669 50.4C35.9109 50.814 35.8779 51.52 36.2919 51.977C36.7059 52.431 37.4119 52.464 37.8689 52.05L39.5639 50.505V53.45C39.5639 54.067 40.0659 54.567 40.6819 54.567C41.2989 54.567 41.7999 54.066 41.7999 53.45V50.673L43.2419 52.118C43.6799 52.554 44.3859 52.554 44.8239 52.118C45.2589 51.68 45.2589 50.972 44.8239 50.536L41.7999 47.512V45.349L44.3739 47.125C44.8189 47.434 45.4079 47.373 45.7819 47.013L45.8189 47.002C46.4069 46.825 46.7419 46.201 46.5629 45.613L45.6679 42.641L47.6429 43.262L49.4629 47.188C49.7199 47.748 50.3829 47.991 50.9429 47.732C51.5009 47.476 51.7459 46.812 51.4889 46.254L50.5239 44.171L53.3319 45.056C53.9199 45.242 54.5489 44.915 54.7339 44.326C54.9199 43.738 54.5929 43.11 54.0049 42.924L51.3569 42.089L53.1669 41.147C53.7149 40.863 53.9269 40.187 53.6419 39.641C53.3569 39.093 52.6819 38.878 52.1359 39.165L48.3419 41.14L46.2799 40.488L48.7489 38.567C49.1749 38.236 49.2959 37.656 49.0619 37.19V37.151C49.0709 36.534 48.5779 36.031 47.9609 36.021L44.8559 35.981L46.0449 34.286L50.3359 33.731C50.9479 33.653 51.3789 33.093 51.3009 32.483C51.2239 31.871 50.6629 31.44 50.0529 31.518L47.7769 31.812L49.4669 29.397C49.8199 28.893 49.6979 28.195 49.1939 27.841C48.6879 27.486 47.9889 27.611 47.6339 28.117L46.0429 30.391L45.6899 28.381C45.5819 27.772 45.0029 27.367 44.3959 27.473C43.7859 27.581 43.3809 28.16 43.4869 28.767L44.2309 32.98L42.9909 34.752L41.9009 31.819C41.7129 31.31 41.1969 31.024 40.6819 31.104L40.6469 31.092C40.0609 30.902 39.4299 31.22 39.2369 31.805L38.2669 34.752L37.0049 33.11L37.7649 28.852C37.8759 28.245 37.4709 27.666 36.8659 27.555C36.2609 27.447 35.6799 27.849 35.5689 28.456L35.1659 30.713L33.3729 28.376C32.9969 27.886 32.2949 27.795 31.8059 28.171C31.3159 28.545 31.2239 29.249 31.5989 29.739L33.2919 31.942L31.2649 31.674C30.6529 31.594 30.0929 32.024 30.0129 32.636C29.9309 33.248 30.3619 33.811 30.9759 33.891L35.2149 34.449L36.5309 36.165L33.4069 36.32C32.8659 36.349 32.4379 36.756 32.3599 37.269L32.3359 37.302C31.9779 37.8 32.0939 38.497 32.5929 38.857L35.1119 40.67L33.1649 41.38L29.3329 39.373C28.7889 39.086 28.1139 39.296 27.8269 39.841C27.5419 40.387 27.7519 41.063 28.2979 41.348L30.3289 42.411L27.5609 43.419C26.9799 43.631 26.6809 44.274 26.8929 44.853C27.1039 45.434 27.7449 45.731 28.3259 45.521L30.9339 44.572L30.0729 46.422C29.8109 46.98 30.0539 47.646 30.6109 47.907C31.1719 48.168 31.8369 47.926 32.0989 47.365L33.9039 43.489L35.9379 42.75L35.1469 45.777C35.0429 46.17 35.1659 46.568 35.4289 46.838L35.4479 46.869C35.7959 47.377 36.4909 47.509 36.9989 47.16L39.5639 45.411V47.483L36.3669 50.4Z" fill="#F8F5EB"/>
<path fill-rule="evenodd" clip-rule="evenodd" d="M242.323 0.000976562H248.123C248.539 0.488977 249.296 0.67598 250.009 0.41098C250.264 0.31598 250.486 0.173977 250.666 0.000976562H265.285C265.209 1.73698 264.621 3.298 263.566 4.664C260.993 7.995 264.06 9.80898 265.639 7.48798L267.739 4.80798V32.976C267.315 32.67 266.904 32.376 266.503 32.083C265.708 31.5 265.209 31.686 264.985 32.648C264.361 35.336 263.514 38.337 263.323 42.948C262.93 42.828 262.466 42.755 261.923 42.745C260.238 42.717 259.675 43.418 259.065 44.179C258.891 44.395 258.705 44.629 258.314 44.671C257.695 44.742 257.422 44.414 257.161 44.101C256.634 43.471 256.123 42.861 254.869 42.744C254.069 42.671 253.379 42.779 252.784 42.995L252.923 30.702C252.942 29.031 251.581 23.796 249.096 23.161L239.109 20.614C238.641 20.32 238.13 19.866 238.342 19.138C238.373 19.036 238.535 18.98 238.712 18.919C239.59 18.615 240.541 18.288 241.218 16.826C242.07 14.983 241.371 14.094 240.708 13.244C240.522 13.008 240.345 12.78 240.371 12.651C240.472 12.145 240.912 11.801 241.409 11.561L249.597 13.439C252.36 14.183 253.452 11.081 249.48 9.98599C246.503 9.16599 244.071 7.35699 242.739 3.76199C242.321 2.64199 242.19 1.34698 242.323 0.000976562ZM238.128 11.054C230.373 9.58299 227.638 19.145 235.443 20.047C235.421 19.648 235.474 19.203 235.622 18.696C236.064 17.186 236.947 16.884 237.905 16.554C238.176 16.46 238.467 16.359 238.623 16.024C238.873 15.488 238.606 15.152 238.355 14.829C237.851 14.184 237.366 13.565 237.594 12.416C237.699 11.889 237.885 11.44 238.128 11.054ZM252.72 46.104L252.718 46.239C252.546 54.996 262.043 54.617 262.992 49.202C263.048 48.875 263.1 48.124 263.15 47.105C263.112 46.987 263.077 46.867 263.042 46.738C262.893 46.216 262.637 45.309 261.627 45.293C261.512 45.291 261.408 45.42 261.298 45.559C260.74 46.255 260.135 47.009 258.428 47.201C256.279 47.446 255.55 46.573 254.855 45.745C254.664 45.516 254.479 45.295 254.339 45.284C253.69 45.222 253.139 45.643 252.72 46.104ZM262.615 24.239C261.657 24.595 261.134 25.559 261.445 26.397C261.755 27.235 262.782 27.626 263.739 27.27C264.697 26.915 265.222 25.948 264.911 25.112C264.602 24.274 263.573 23.884 262.615 24.239ZM260.565 18.557C259.607 18.912 259.082 19.88 259.393 20.718C259.703 21.556 260.732 21.946 261.69 21.591C262.648 21.236 263.17 20.268 262.859 19.43C262.549 18.592 261.523 18.202 260.565 18.557ZM258.512 12.878C257.554 13.233 257.031 14.2 257.342 15.038C257.653 15.874 258.679 16.267 259.636 15.911C260.594 15.555 261.119 14.588 260.808 13.75C260.499 12.913 259.47 12.525 258.512 12.878ZM256.858 1.06097C257.112 0.377974 257.915 -0.0339995 258.65 0.138C259.382 0.312 259.773 1.004 259.516 1.685C259.257 2.374 258.881 3.00099 258.422 3.54199C257.661 4.43899 256.661 5.131 255.571 5.534C254.453 5.948 253.238 6.058 252.083 5.785C251.485 5.643 250.911 5.40598 250.386 5.06198C249.784 4.66498 249.694 3.87098 250.188 3.28998C250.683 2.70798 251.572 2.55799 252.175 2.95599C252.448 3.13499 252.728 3.25498 253.008 3.31998C253.561 3.44998 254.149 3.39299 254.7 3.18799C255.279 2.97599 255.818 2.6 256.239 2.103C256.5 1.792 256.714 1.44197 256.858 1.06097Z" fill="#F8F5EB"/>
<path fill-rule="evenodd" clip-rule="evenodd" d="M255.79 261.956C254.905 262.286 254.422 263.178 254.709 263.952C254.994 264.725 255.945 265.087 256.83 264.757C257.713 264.43 258.197 263.535 257.91 262.763C257.625 261.989 256.674 261.629 255.79 261.956ZM265.284 266.871H250.665C251.109 266.446 251.296 265.834 251.091 265.284C250.804 264.51 249.853 264.147 248.971 264.477C248.086 264.805 247.6 265.699 247.888 266.473C247.943 266.621 248.023 266.755 248.122 266.871H242.322C242.712 262.892 245.41 258.468 249.848 256.739L249.858 256.734L249.865 256.731L249.891 256.72L249.919 256.711L249.959 256.696L250.002 256.68L250.028 256.671L250.053 256.661L250.06 256.659H250.062L250.072 256.656C256.083 254.536 262.876 258.106 264.526 262.547C265.097 264.086 265.344 265.531 265.284 266.871Z" fill="#F8F5EB"/>
<path fill-rule="evenodd" clip-rule="evenodd" d="M8.52591 0.000976562H15.7009C15.6399 0.955977 15.2019 2.01098 14.2559 3.09598C14.0119 2.78098 13.6819 2.47499 13.2389 2.18799C11.9189 1.33599 11.0529 1.67999 10.1109 2.05399C9.8449 2.15899 9.55492 2.27498 9.22092 2.12198C8.68392 1.87698 8.66292 1.44899 8.64392 1.04199C8.62992 0.687992 8.61291 0.339977 8.52591 0.000976562ZM0.868896 32.976V4.81L4.19992 0.556976C4.73392 0.415976 5.2919 0.387987 5.6969 0.704987C5.8029 0.787987 5.81692 1.07499 5.82892 1.37299C5.88092 2.45099 5.93191 3.58397 7.77991 4.42297C9.24691 5.08897 10.1809 4.71699 11.0449 4.37399C11.2169 4.30599 11.3759 4.24199 11.4669 4.30099C12.1049 4.71299 12.0099 5.38999 11.8479 5.91699L5.49292 14.527C4.08492 16.438 6.39692 21.472 7.50992 22.741L15.6379 31.974C14.9619 32.183 14.2819 32.57 13.6439 33.228C12.7679 34.135 12.7799 34.93 12.7919 35.751C12.7989 36.159 12.8029 36.587 12.2879 36.937C11.9649 37.159 11.6709 37.102 11.3979 37.052C10.4399 36.873 9.5569 36.708 8.2959 37.831C7.9709 38.121 7.70991 38.41 7.50491 38.692C4.93891 35.951 2.7769 34.35 0.868896 32.976ZM9.91589 41.274C10.8879 42.31 11.6229 43.07 11.9429 43.332C16.1819 46.808 23.6069 40.943 17.8409 34.437C17.1469 34.301 16.2479 34.239 15.6989 34.807C15.5999 34.91 15.6049 35.195 15.6099 35.492C15.6239 36.574 15.6409 37.711 13.8519 38.931C12.4349 39.896 11.4839 39.72 10.6059 39.555C10.4289 39.524 10.2669 39.494 10.1819 39.569C9.56792 40.114 9.71589 40.78 9.91589 41.274Z" fill="#F8F5EB"/>
<path fill-rule="evenodd" clip-rule="evenodd" d="M15.7009 266.871H8.52591C8.41091 266.425 8.17291 265.995 7.64691 265.586C7.22591 265.254 6.78991 265.035 6.35791 264.901C9.96091 260.751 15.9549 262.985 15.7009 266.871Z" fill="#F8F5EB"/>
<path fill-rule="evenodd" clip-rule="evenodd" d="M80.733 125.2L78.436 126.787C78.064 127.093 77.518 127.131 77.099 126.846L77.231 126.655H77.228L77.1011 126.843L74.954 125.382L75.578 127.775C75.738 128.232 75.587 128.756 75.176 129.053L75.042 128.865L75.176 129.05L72.811 130.752L75.597 130.893C76.08 130.877 76.534 131.177 76.694 131.658L76.475 131.731V131.733L76.692 131.662L77.605 134.427L78.577 131.812C78.707 131.346 79.13 131.002 79.639 130.995L79.641 131.226L79.639 130.997L82.552 130.96L80.349 129.247C79.944 128.984 79.7441 128.475 79.8901 127.988L80.111 128.057L79.892 127.988L80.733 125.2ZM73.357 118.787C72.903 118.37 72.867 117.664 73.284 117.21C73.698 116.754 74.404 116.72 74.859 117.135L76.556 118.682V115.735C76.556 115.118 77.055 114.617 77.671 114.617C78.29 114.617 78.789 115.118 78.789 115.735V118.512L80.234 117.069C80.67 116.631 81.378 116.631 81.813 117.069C82.249 117.505 82.249 118.213 81.813 118.649L78.789 121.673V123.836L81.364 122.059C81.809 121.751 82.397 121.812 82.772 122.174L82.81 122.183C83.398 122.362 83.732 122.985 83.553 123.574L82.659 126.547L84.634 125.923L86.453 121.998C86.712 121.44 87.3731 121.195 87.9331 121.454C88.4931 121.713 88.735 122.377 88.479 122.935L87.514 125.015L90.324 124.13C90.912 123.944 91.541 124.271 91.727 124.859C91.913 125.447 91.584 126.076 90.995 126.262L88.347 127.097L90.16 128.038C90.706 128.323 90.92 128.999 90.635 129.547C90.351 130.093 89.675 130.307 89.126 130.02L85.332 128.048L83.27 128.697L85.739 130.618C86.167 130.95 86.285 131.529 86.054 131.995V132.032C86.061 132.649 85.567 133.155 84.952 133.162L81.848 133.202L83.037 134.899L87.328 135.452C87.938 135.529 88.371 136.09 88.293 136.701C88.213 137.311 87.655 137.744 87.043 137.667L84.769 137.373L86.457 139.786C86.812 140.292 86.687 140.988 86.184 141.344C85.678 141.697 84.981 141.575 84.626 141.068L83.033 138.792L82.68 140.804C82.574 141.411 81.992 141.819 81.385 141.71C80.776 141.602 80.371 141.023 80.479 140.416L81.22 136.203L79.98 134.433L78.893 137.366C78.703 137.872 78.187 138.161 77.674 138.079L77.636 138.091C77.053 138.284 76.422 137.964 76.229 137.38L75.257 134.431L73.995 136.074L74.758 140.334C74.866 140.939 74.464 141.52 73.857 141.628C73.252 141.739 72.671 141.334 72.563 140.729L72.158 138.47L70.365 140.807C69.991 141.296 69.289 141.388 68.797 141.014C68.307 140.638 68.216 139.936 68.592 139.447L70.2821 137.244L68.258 137.51C67.646 137.59 67.084 137.16 67.004 136.547C66.924 135.935 67.355 135.375 67.967 135.295L72.208 134.735L73.524 133.019L70.398 132.863C69.859 132.835 69.429 132.428 69.353 131.915L69.329 131.884C68.969 131.382 69.085 130.686 69.583 130.325L72.102 128.513L70.158 127.804L66.326 129.812C65.78 130.097 65.105 129.887 64.817 129.341C64.532 128.795 64.742 128.122 65.288 127.835L67.32 126.771L64.552 125.764C63.973 125.552 63.674 124.912 63.884 124.33C64.096 123.751 64.739 123.452 65.318 123.662L67.928 124.613L67.064 122.763C66.803 122.203 67.046 121.537 67.606 121.278C68.166 121.017 68.829 121.259 69.091 121.817L70.898 125.693L72.929 126.434L72.141 123.405C72.037 123.012 72.1571 122.614 72.4201 122.343L72.441 122.314C72.787 121.806 73.481 121.674 73.99 122.023L76.5581 123.769V121.697L73.357 118.787Z" fill="#F8F5EB"/>
<path fill-rule="evenodd" clip-rule="evenodd" d="M233.225 28.874L211.717 29.526C213.814 29.05 215.82 28.4 216.667 28.067C218.503 27.342 220.765 26.591 223.012 25.037C232.288 18.631 219.602 2.25601 207.24 25.633C193.342 2.81401 182.073 20.113 191.582 25.866C193.919 27.28 196.101 28.022 197.977 28.634C198.843 28.914 200.886 29.441 203.004 29.789L181.496 30.441L181.825 41.294L205.87 40.567L205.55 30.072C206.887 30.183 207.866 30.152 209.191 29.961L209.508 40.456L233.553 39.726L233.225 28.874ZM209.597 26.981C214.7 25.482 215.653 25.446 220.104 22.37C223.023 20.356 222.199 17.562 219.706 17.48C217.213 17.395 213.405 19.638 209.597 26.981ZM204.97 27.122C201.164 26.249 198.107 25.924 194.715 23.872C191.509 21.935 191.874 18.651 194.193 18.132C196.511 17.611 200.404 19.492 204.97 27.122ZM229.034 43.204L216.244 43.592L221.069 50.933L216.879 50.75L215.201 54.69L209.613 43.821L210.294 66.289L229.713 65.701L229.034 43.204ZM199.502 44.099L187.209 44.471L187.891 66.97L206.652 66.4L205.972 43.949L199.464 57.975L197.614 54.112L193.439 54.482L199.502 44.099Z" fill="#F8F5EB"/>
<path fill-rule="evenodd" clip-rule="evenodd" d="M132.93 0.000976562L132.783 0.0479736V0.0499878L132.93 0.000976562H133.007L133.912 2.746L134.884 0.128998C134.897 0.0849978 134.911 0.0429836 134.929 0.00198364H142.463C142.445 0.107984 142.412 0.212988 142.362 0.312988L142.364 0.349976C142.371 0.966976 141.877 1.47098 141.26 1.47998L138.156 1.51999L139.344 3.21698L143.635 3.76999C144.248 3.84799 144.678 4.40797 144.6 5.01797C144.522 5.62997 143.962 6.06199 143.351 5.98499L141.077 5.69098L142.767 8.104C143.12 8.61 142.997 9.307 142.491 9.66C141.985 10.015 141.288 9.89099 140.933 9.38699L139.342 7.11298L138.987 9.12299C138.881 9.73099 138.302 10.138 137.695 10.03C137.086 9.921 136.681 9.34299 136.787 8.73499L137.53 4.52298L136.29 2.75299L135.2 5.685C135.012 6.191 134.494 6.47798 133.981 6.39798L133.946 6.41C133.36 6.601 132.729 6.28197 132.535 5.69897L131.566 2.75L130.304 4.39297L131.067 8.64999C131.175 9.25799 130.773 9.83899 130.166 9.94699C129.559 10.055 128.977 9.65299 128.869 9.04599L128.467 6.789L126.674 9.12598C126.297 9.61598 125.596 9.70699 125.106 9.33099C124.614 8.95699 124.522 8.256 124.899 7.763L126.591 5.56299L124.565 5.82898C123.953 5.90898 123.393 5.478 123.313 4.866C123.231 4.253 123.661 3.69099 124.273 3.61099L128.514 3.05298L129.83 1.33798L126.705 1.18198C126.166 1.15298 125.738 0.749002 125.66 0.233002L125.636 0.201996C125.59 0.137996 125.552 0.0709836 125.521 0.00198364H132.93V0.000976562Z" fill="#F8F5EB"/>
<path fill-rule="evenodd" clip-rule="evenodd" d="M137.044 260.386L134.747 261.97C134.373 262.278 133.829 262.316 133.41 262.029L133.54 261.841L133.41 262.027L131.264 260.568L131.89 262.961C132.048 263.418 131.899 263.942 131.488 264.237L131.354 264.052H131.351L131.486 264.237L129.12 265.939L131.909 266.078C132.391 266.064 132.846 266.365 133.003 266.845L132.925 266.871H125.521C125.311 266.397 125.455 265.827 125.893 265.513L128.411 263.698L126.465 262.992L122.633 264.997C122.086 265.284 121.413 265.074 121.126 264.529C120.839 263.982 121.051 263.307 121.594 263.022L123.628 261.958L120.86 260.951C120.279 260.739 119.98 260.096 120.192 259.517C120.404 258.936 121.044 258.637 121.623 258.848L124.233 259.797L123.372 257.95C123.111 257.39 123.351 256.724 123.911 256.462C124.471 256.203 125.137 256.444 125.396 257.003L127.203 260.88L129.237 261.619L128.446 258.593C128.343 258.2 128.463 257.802 128.728 257.531L128.748 257.5C129.096 256.993 129.791 256.862 130.299 257.208L132.865 258.957V256.885L129.668 253.969C129.212 253.555 129.178 252.849 129.593 252.393C130.007 251.939 130.713 251.905 131.168 252.32L132.865 253.866V250.919C132.865 250.303 133.364 249.801 133.982 249.801C134.599 249.801 135.1 250.303 135.1 250.919V253.697L136.543 252.254C136.981 251.816 137.686 251.816 138.124 252.254C138.56 252.69 138.56 253.398 138.124 253.834L135.1 256.858V259.021L137.675 257.244C138.119 256.936 138.708 256.997 139.082 257.357L139.117 257.368C139.708 257.545 140.042 258.169 139.863 258.759L138.969 261.729L140.944 261.108L142.761 257.182C143.02 256.622 143.684 256.379 144.244 256.636C144.802 256.895 145.047 257.559 144.788 258.119L143.822 260.199L146.632 259.314C147.221 259.128 147.849 259.455 148.035 260.043C148.221 260.631 147.894 261.26 147.305 261.446L144.657 262.281L146.467 263.222C147.016 263.507 147.228 264.183 146.943 264.731C146.658 265.277 145.983 265.491 145.437 265.204L141.641 263.229L139.579 263.881L142.05 265.802C142.385 266.063 142.53 266.477 142.464 266.868H134.93C135.098 266.47 135.488 266.187 135.947 266.181L135.952 266.412L135.95 266.183L138.864 266.146L136.659 264.433C136.256 264.167 136.056 263.661 136.202 263.173L136.423 263.242V263.239L136.204 263.173L137.044 260.386ZM132.928 266.871L133 266.848L133.008 266.871H132.928Z" fill="#F8F5EB"/>
<path fill-rule="evenodd" clip-rule="evenodd" d="M147.167 32.9209L144.87 31.3369C144.496 31.0309 143.952 30.9909 143.533 31.2779L143.662 31.469L143.533 31.28L141.389 32.7419L142.013 30.3479C142.173 29.8919 142.022 29.3669 141.611 29.0699L141.477 29.258H141.474L141.608 29.0719L139.246 27.371L142.032 27.2299C142.515 27.2469 142.969 26.9429 143.129 26.4629L142.908 26.3899H142.91L143.127 26.461L144.038 23.6949L145.01 26.31C145.142 26.776 145.566 27.119 146.072 27.124L146.077 26.8939L146.075 27.124L148.988 27.1619L146.785 28.8729C146.38 29.1389 146.18 29.6469 146.326 30.1319L146.548 30.0659L146.329 30.1319L147.167 32.9209ZM139.79 39.3369C139.334 39.7509 139.3 40.457 139.715 40.914C140.129 41.368 140.838 41.403 141.292 40.987L142.987 39.443V42.387C142.987 43.006 143.488 43.5049 144.105 43.5049C144.722 43.5049 145.223 43.006 145.223 42.387V39.6099L146.666 41.055C147.104 41.491 147.812 41.491 148.247 41.055C148.683 40.62 148.683 39.9119 148.247 39.4759L145.223 36.452V34.289L147.798 36.0659C148.242 36.3719 148.831 36.3129 149.205 35.9509L149.243 35.9409C149.831 35.7619 150.165 35.139 149.986 34.551L149.092 31.578L151.067 32.202L152.884 36.1279C153.146 36.6859 153.807 36.93 154.367 36.672C154.927 36.413 155.17 35.7489 154.91 35.1919L153.948 33.112L156.755 33.9969C157.344 34.1829 157.972 33.856 158.158 33.267C158.344 32.679 158.017 32.0509 157.428 31.8639L154.78 31.0279L156.59 30.0849C157.139 29.7999 157.351 29.1269 157.066 28.5789C156.781 28.0299 156.108 27.819 155.56 28.103L151.766 30.078L149.704 29.4289L152.173 27.508C152.599 27.176 152.719 26.5949 152.486 26.1309L152.488 26.091C152.495 25.476 152.001 24.9709 151.385 24.9629L148.282 24.9229L149.471 23.2259L153.759 22.6699C154.372 22.5949 154.804 22.0349 154.725 21.4229C154.647 20.8129 154.087 20.3799 153.477 20.4579L151.203 20.7519L152.891 18.34C153.246 17.834 153.121 17.1349 152.618 16.7819C152.112 16.4289 151.413 16.5509 151.06 17.0579L149.467 19.331L149.114 17.3219C149.005 16.7149 148.426 16.3069 147.819 16.4159C147.21 16.5209 146.805 17.103 146.913 17.711L147.654 21.9209L146.414 23.693L145.324 20.7609C145.136 20.2549 144.618 19.9649 144.105 20.0479L144.07 20.0359C143.484 19.8429 142.853 20.1609 142.662 20.7469L141.69 23.693L140.428 22.0499L141.191 17.7919C141.299 17.1879 140.897 16.6059 140.29 16.4979C139.685 16.3899 139.104 16.792 138.993 17.397L138.591 19.6539L136.798 17.319C136.424 16.829 135.72 16.735 135.23 17.112C134.74 17.488 134.649 18.1889 135.023 18.6789L136.715 20.8819L134.691 20.616C134.077 20.533 133.517 20.964 133.437 21.578C133.355 22.191 133.788 22.7499 134.397 22.8299L138.638 23.3899L139.954 25.103L136.831 25.2609C136.292 25.2899 135.862 25.6949 135.783 26.2099L135.762 26.241C135.403 26.742 135.518 27.4389 136.016 27.7989L138.535 29.612L136.591 30.3209L132.757 28.3129C132.211 28.0259 131.538 28.2379 131.251 28.7809C130.963 29.3269 131.176 30.0019 131.721 30.2899L133.753 31.3509L130.985 32.358C130.404 32.569 130.107 33.2119 130.316 33.7909C130.528 34.3719 131.168 34.6709 131.75 34.4589L134.36 33.5099L133.496 35.3599C133.235 35.9199 133.477 36.584 134.035 36.845C134.595 37.107 135.261 36.8639 135.523 36.3039L137.33 32.43L139.361 31.689L138.57 34.716C138.468 35.109 138.589 35.5069 138.852 35.7779L138.874 35.8079C139.22 36.3159 139.914 36.4479 140.422 36.0999L142.988 34.353V36.4249L139.79 39.3369Z" fill="#F8F5EB"/>
<path fill-rule="evenodd" clip-rule="evenodd" d="M212.732 164.647L210.435 163.063C210.061 162.757 209.517 162.719 209.099 163.004L209.228 163.195L209.099 163.007L206.955 164.468L207.579 162.075C207.739 161.618 207.588 161.094 207.176 160.799L207.042 160.984L207.174 160.799L204.811 159.097L207.598 158.956C208.08 158.973 208.537 158.671 208.695 158.189L208.474 158.118L208.477 158.116L208.693 158.189L209.606 155.422L210.575 158.039C210.707 158.503 211.131 158.847 211.639 158.854L211.642 158.623L211.639 158.852L214.552 158.889L212.349 160.602C211.944 160.866 211.744 161.374 211.89 161.859L212.112 161.793L211.893 161.859L212.732 164.647ZM205.355 171.063C204.899 171.48 204.866 172.183 205.282 172.64C205.694 173.096 206.402 173.13 206.856 172.715L208.551 171.168V174.112C208.551 174.731 209.052 175.23 209.669 175.23C210.286 175.23 210.786 174.731 210.786 174.112V171.337L212.232 172.78C212.667 173.218 213.375 173.218 213.811 172.78C214.249 172.345 214.249 171.637 213.811 171.201L210.786 168.177V166.014L213.361 167.791C213.806 168.099 214.396 168.038 214.768 167.676L214.806 167.667C215.394 167.488 215.729 166.866 215.552 166.276L214.655 163.303L216.63 163.927L218.45 167.853C218.709 168.411 219.373 168.655 219.93 168.397C220.49 168.138 220.735 167.477 220.476 166.916L219.511 164.836L222.319 165.721C222.908 165.907 223.538 165.58 223.721 164.992C223.907 164.404 223.58 163.775 222.992 163.589L220.344 162.754L222.156 161.813C222.703 161.528 222.917 160.852 222.629 160.304C222.344 159.758 221.671 159.544 221.123 159.829L217.329 161.803L215.267 161.154L217.739 159.233C218.163 158.901 218.282 158.322 218.052 157.856V157.819C218.059 157.202 217.564 156.696 216.95 156.689L213.846 156.649L215.034 154.952L219.323 154.399C219.935 154.322 220.368 153.761 220.288 153.151C220.211 152.539 219.653 152.106 219.041 152.184L216.768 152.478L218.455 150.065C218.811 149.559 218.686 148.863 218.182 148.507C217.676 148.154 216.977 148.276 216.624 148.783L215.031 151.057L214.678 149.047C214.57 148.44 213.991 148.032 213.384 148.141C212.776 148.249 212.369 148.828 212.477 149.435L213.219 153.646L211.979 155.419L210.889 152.486C210.701 151.98 210.185 151.693 209.67 151.773L209.635 151.761C209.048 151.568 208.421 151.886 208.227 152.472L207.255 155.421L205.993 153.778L206.756 149.518C206.867 148.913 206.462 148.332 205.855 148.224C205.25 148.116 204.669 148.518 204.561 149.125L204.156 151.382L202.363 149.045C201.989 148.556 201.285 148.461 200.796 148.84C200.306 149.214 200.214 149.916 200.589 150.405L202.282 152.608L200.258 152.342C199.645 152.259 199.083 152.692 199.003 153.305C198.923 153.917 199.354 154.477 199.966 154.559L204.205 155.117L205.523 156.833L202.398 156.989C201.859 157.017 201.429 157.422 201.351 157.937L201.329 157.968C200.969 158.47 201.084 159.166 201.583 159.527L204.104 161.339L202.158 162.048L198.326 160.041C197.78 159.756 197.105 159.966 196.818 160.509C196.533 161.055 196.743 161.73 197.289 162.017L199.32 163.081L196.552 164.088C195.973 164.298 195.675 164.94 195.884 165.522C196.095 166.101 196.738 166.4 197.317 166.19L199.927 165.239L199.064 167.089C198.803 167.649 199.045 168.313 199.603 168.574C200.163 168.836 200.829 168.593 201.091 168.035L202.898 164.159L204.93 163.418L204.139 166.447C204.038 166.838 204.158 167.238 204.422 167.507L204.443 167.538C204.789 168.047 205.483 168.178 205.992 167.83L208.557 166.083V168.155L205.355 171.063Z" fill="#F8F5EB"/>
<path fill-rule="evenodd" clip-rule="evenodd" d="M211.277 0.000976562L210.859 0.513977L213.248 0.000976562H214.417C214.585 0.0859766 214.735 0.216003 214.846 0.384003L214.651 0.509003L214.653 0.511993L214.844 0.384003L216.442 2.823L216.704 0.0439758L216.705 0.000976562H222.123L220.225 0.537994L221.812 1.86697L226.101 1.28799C226.71 1.20599 227.273 1.634 227.355 2.246C227.437 2.856 227.009 3.418 226.399 3.5L224.125 3.806L226.382 5.698C226.855 6.096 226.918 6.79998 226.521 7.27298C226.125 7.74598 225.419 7.80899 224.947 7.41199L222.819 5.62799L222.998 7.66199C223.052 8.27899 222.597 8.81999 221.981 8.87399C221.366 8.92799 220.825 8.47399 220.771 7.85999L220.397 3.59698L218.74 2.20798L218.448 5.32397C218.396 5.85997 217.972 6.27498 217.455 6.32898L217.424 6.34998C216.909 6.68698 216.217 6.54098 215.878 6.02798L214.176 3.43198L213.385 5.345L215.223 9.26099C215.487 9.81899 215.246 10.483 214.691 10.746C214.133 11.008 213.467 10.769 213.205 10.212L212.228 8.13599L211.103 10.857C210.867 11.429 210.213 11.7 209.641 11.464C209.072 11.228 208.801 10.575 209.036 10.002L210.098 7.43698L208.213 8.22098C207.641 8.45698 206.989 8.186 206.751 7.616C206.516 7.046 206.786 6.39199 207.356 6.15399L211.306 4.51599L212.132 2.51797L209.074 3.177C208.547 3.29 208.025 3.00998 207.817 2.53198L207.787 2.509C207.311 2.118 207.24 1.417 207.632 0.938995L208.399 0H211.277V0.000976562ZM202.579 0.000976562H205.745L204.348 1.289C203.896 1.705 203.191 1.67999 202.774 1.22699C202.457 0.88399 202.397 0.398977 202.579 0.000976562Z" fill="#F8F5EB"/>
<path fill-rule="evenodd" clip-rule="evenodd" d="M217.072 259.967L215.264 262.093C214.982 262.486 214.466 262.665 213.988 262.497L214.063 262.278L213.988 262.495L211.536 261.638L212.76 263.789C213.033 264.189 213.024 264.733 212.703 265.126L212.524 264.98L212.698 265.126L211.276 266.87H208.398L209.594 265.404L207.53 265.225L205.745 266.87H202.579C202.639 266.741 202.724 266.62 202.834 266.517L204.519 264.963L201.586 264.707C200.972 264.655 200.515 264.111 200.569 263.497C200.624 262.882 201.165 262.426 201.779 262.48L204.546 262.72L203.233 261.157C202.835 260.684 202.896 259.978 203.369 259.583C203.843 259.185 204.546 259.246 204.944 259.72L207.695 262.996L209.849 263.182L208.3 260.463C208.1 260.11 208.112 259.696 208.298 259.366L208.309 259.331C208.512 258.75 209.15 258.444 209.731 258.646L212.661 259.67L212.125 257.67L208.281 255.683C207.735 255.401 207.518 254.728 207.801 254.179C208.084 253.633 208.754 253.419 209.303 253.699L211.341 254.754L210.576 251.909C210.417 251.313 210.772 250.699 211.367 250.539C211.962 250.379 212.577 250.732 212.737 251.33L213.457 254.011L214.477 252.244C214.785 251.707 215.47 251.523 216.005 251.834C216.538 252.142 216.723 252.825 216.414 253.359L214.277 257.064L214.837 259.151L216.863 256.769C217.214 256.357 217.798 256.262 218.252 256.515H218.292C218.906 256.534 219.391 257.049 219.372 257.663L219.278 260.767L221.024 259.652L221.763 255.389C221.866 254.782 222.444 254.375 223.051 254.481C223.658 254.584 224.065 255.164 223.961 255.768L223.568 258.028L226.051 256.444C226.571 256.111 227.265 256.267 227.597 256.788C227.929 257.308 227.774 258 227.256 258.332L224.914 259.824L226.907 260.264C227.51 260.399 227.891 260.994 227.757 261.599C227.623 262.199 227.025 262.58 226.425 262.446L222.247 261.523L220.425 262.686L223.309 263.9C223.805 264.109 224.071 264.639 223.968 265.147L223.979 265.187C224.147 265.777 223.8 266.394 223.207 266.562L222.114 266.87H216.7C216.722 266.404 217.04 265.983 217.513 265.851L217.575 266.072H217.578L217.514 265.851L220.32 265.06L217.748 263.975C217.289 263.824 216.964 263.386 216.978 262.878L217.209 262.887V262.884L216.981 262.877L217.072 259.967ZM213.237 266.871L213.586 266.796C213.865 266.713 214.162 266.742 214.416 266.871H213.237Z" fill="#F8F5EB"/>
<path d="M6.29691 144.795C5.83991 145.577 5.11091 146.101 4.29791 146.316C3.48391 146.532 2.58892 146.438 1.80792 145.984H1.80292C1.43092 145.767 1.11792 145.487 0.86792 145.166V147.443L0.931915 147.481L0.933899 147.483C2.1369 148.18 3.50191 148.326 4.74191 147.999C5.98191 147.67 7.09991 146.867 7.79691 145.669L20.3849 124.025C21.3809 122.312 21.9919 120.469 22.2399 118.602C22.5009 116.667 22.3699 114.714 21.8799 112.864C21.0849 109.858 19.3759 107.22 17.0809 105.314C14.8349 103.448 12.0299 102.285 8.9679 102.165C7.8329 102.118 6.67692 102.217 5.53592 102.471C4.44192 102.713 3.3609 103.101 2.3259 103.641C1.8269 103.902 1.3399 104.199 0.868896 104.529V110.576L3.9169 113.359C3.6389 113.901 3.4059 114.522 3.2319 115.223C3.2089 115.32 3.18491 115.416 3.16391 115.515L0.868896 114.71V118.394L2.6199 119.008C2.4359 119.438 2.1639 119.822 1.8269 120.133C1.5469 120.392 1.2239 120.602 0.868896 120.751V122.579C1.6759 122.369 2.40592 121.962 3.00192 121.411C3.94292 120.54 4.55492 119.308 4.60892 117.927C4.64192 117.068 4.74992 116.307 4.91492 115.644C5.08492 114.966 5.3169 114.389 5.5979 113.909C5.7959 113.567 6.00991 113.287 6.22791 113.064L6.2309 113.067C6.4659 112.831 6.7059 112.653 6.9509 112.525C7.1979 112.395 7.4599 112.304 7.7229 112.246C8.0029 112.184 8.28791 112.161 8.57291 112.173C9.38991 112.206 10.1349 112.557 10.7409 113.096C11.4279 113.706 11.9339 114.546 12.1689 115.436C12.3269 116.034 12.3719 116.658 12.2919 117.265C12.2119 117.849 12.0209 118.432 11.7029 118.978L0.868896 137.605V143.856L7.86191 142.102L6.29691 144.795ZM1.41092 140.132L3.92191 135.813L12.8159 133.581L10.3029 137.905L1.41092 140.132ZM6.36191 131.617L8.87592 127.293L17.7679 125.064L15.2539 129.385L6.36191 131.617ZM11.3149 123.099L13.2049 119.849C13.3999 119.515 13.5599 119.168 13.6869 118.811L20.6299 117.072C20.6179 117.508 20.5809 117.943 20.5209 118.376C20.4059 119.243 20.2019 120.104 19.9029 120.949L11.3149 123.099ZM13.8969 115.176C13.8799 115.112 13.8659 115.049 13.8499 114.988C13.7839 114.746 13.7069 114.506 13.6119 114.267L18.2789 109.158C19.1429 110.396 19.7989 111.799 20.1999 113.307C20.2229 113.396 20.2469 113.488 20.2679 113.578L13.8969 115.176ZM11.4719 111.458C11.2879 111.322 11.0959 111.197 10.8969 111.086L10.5789 104.084C12.5629 104.458 14.3799 105.341 15.9099 106.595L11.4719 111.458ZM7.39291 110.542L7.35391 110.551H7.34891C7.01291 110.624 6.68092 110.734 6.36292 110.882L1.36191 106.317C1.92391 105.877 2.51491 105.498 3.12891 105.177C4.02591 104.707 4.96491 104.37 5.91391 104.158C6.30691 104.071 6.69991 104.005 7.09491 103.96L7.39291 110.542Z" fill="#F8F5EB"/>
<path d="M267.739 145.167C267.467 144.818 267.272 144.42 267.158 143.999L267.739 143.853V137.602L265.985 140.617C265.289 141.817 265.143 143.185 265.472 144.427C265.793 145.643 266.574 146.741 267.739 147.442V145.167ZM267.739 104.527V110.575L265.849 108.85C265.653 109.13 265.465 109.424 265.287 109.732C264.68 110.775 264.181 111.969 263.823 113.31L263.816 113.333L267.74 114.709V118.392L263.247 116.817C263.228 117.074 263.214 117.335 263.203 117.598C263.168 118.502 263.502 119.335 264.071 119.952C264.641 120.567 265.443 120.964 266.345 121.002C266.839 121.02 267.312 120.929 267.741 120.749V122.577C267.275 122.698 266.783 122.754 266.277 122.734C264.895 122.677 263.667 122.068 262.795 121.126C261.927 120.185 261.416 118.912 261.47 117.53C261.538 115.821 261.774 114.27 262.146 112.87C262.551 111.357 263.108 110.022 263.784 108.857C264.457 107.704 265.252 106.702 266.138 105.847C266.644 105.358 267.18 104.918 267.739 104.527Z" fill="#F8F5EB"/>
<path d="M25.724 205.429C25.649 206.333 25.213 207.122 24.57 207.663C23.926 208.207 23.076 208.505 22.176 208.43L22.171 208.428C21.277 208.353 20.496 207.922 19.954 207.286L25.984 202.324L25.724 205.429ZM19.312 203.31L19.731 198.33L26.813 192.507L26.392 197.489L19.312 203.31ZM20.138 193.494L20.56 188.514L27.642 182.689L27.22 187.674L20.138 193.494ZM20.967 183.677L21.285 179.93C21.316 179.544 21.314 179.163 21.276 178.786L26.805 174.238C26.979 174.638 27.135 175.045 27.267 175.464C27.533 176.295 27.716 177.161 27.808 178.053L20.967 183.677ZM19.908 175.413C19.865 175.361 19.825 175.311 19.783 175.26C19.623 175.069 19.449 174.886 19.263 174.714L21.289 168.096C22.6 168.847 23.796 169.831 24.803 171.024C24.862 171.097 24.921 171.167 24.98 171.238L19.908 175.413ZM16.126 173.088C15.9 173.046 15.674 173.015 15.446 173.001L12.16 166.808C14.113 166.297 16.136 166.316 18.054 166.794L16.126 173.088ZM12.047 174.008L12.014 174.034L12.011 174.037C11.738 174.248 11.484 174.489 11.261 174.76L4.78604 172.776C5.10504 172.138 5.47804 171.542 5.89404 170.989C6.50404 170.18 7.20803 169.473 7.97503 168.876C8.29203 168.631 8.62204 168.403 8.95804 168.191L12.047 174.008ZM10.11 178.045C10.09 178.649 10.147 179.308 10.291 180.022C10.31 180.119 10.331 180.215 10.353 180.313L3.80304 181.006L3.79803 180.982C3.54703 179.615 3.48702 178.325 3.58902 177.123C3.62002 176.767 3.66202 176.421 3.71902 176.085L10.11 178.045ZM11.357 183.702C11.375 184.17 11.296 184.632 11.124 185.058C10.811 185.837 10.201 186.497 9.37103 186.852C8.54003 187.205 7.64302 187.188 6.86602 186.877C6.08802 186.562 5.42803 185.952 5.07303 185.122C4.96903 184.879 4.87102 184.637 4.77902 184.399L11.357 183.702ZM25.69 208.99C26.674 208.161 27.338 206.957 27.455 205.578L29.559 180.629C29.727 178.652 29.488 176.727 28.914 174.933C28.319 173.074 27.365 171.365 26.13 169.903C24.124 167.528 21.449 165.873 18.561 165.135C15.734 164.41 12.698 164.56 9.87903 165.763C8.83403 166.207 7.83304 166.791 6.91104 167.507C6.02604 168.199 5.21403 169.011 4.51303 169.94C3.77203 170.924 3.15003 172.028 2.69403 173.245C2.25803 174.398 1.96902 175.643 1.85602 176.976C1.74302 178.318 1.80902 179.763 2.09402 181.302C2.35802 182.726 2.80904 184.23 3.48004 185.802C4.02104 187.076 5.02702 188.008 6.21502 188.486C7.40402 188.964 8.77804 188.99 10.049 188.446C11.322 187.904 12.254 186.897 12.732 185.711C13.21 184.52 13.236 183.148 12.693 181.874C12.356 181.083 12.128 180.352 11.994 179.678C11.855 178.993 11.817 178.374 11.864 177.819C11.897 177.426 11.969 177.082 12.075 176.788H12.078C12.189 176.475 12.33 176.209 12.494 175.987C12.663 175.766 12.859 175.573 13.073 175.406C13.299 175.232 13.549 175.086 13.81 174.975C14.561 174.655 15.387 174.655 16.164 174.881C17.047 175.138 17.863 175.679 18.456 176.383C18.856 176.856 19.162 177.4 19.348 177.985C19.529 178.545 19.605 179.155 19.55 179.784L17.446 204.732C17.331 206.114 17.785 207.412 18.613 208.394C19.442 209.371 20.645 210.037 22.026 210.155H22.031C23.415 210.27 24.712 209.819 25.69 208.99Z" fill="#F8F5EB"/>
<path d="M42.1899 266.871H39.4709L35.9589 263.95L26.8409 264.91L29.1979 266.871H26.4779L24.0229 264.83C22.4999 263.564 21.2929 262.043 20.4199 260.377C19.5109 258.647 18.9629 256.769 18.7889 254.862C18.5039 251.767 19.2009 248.7 20.7029 246.123C22.1689 243.6 24.4079 241.543 27.2409 240.377C28.2909 239.944 29.4089 239.64 30.5669 239.487C31.6799 239.339 32.8289 239.332 33.9839 239.484C35.2049 239.644 36.4269 239.978 37.6159 240.505C38.7409 241.004 39.8329 241.671 40.8589 242.525C41.8939 243.384 42.8779 244.448 43.7749 245.731C44.6059 246.919 45.3589 248.294 46.0109 249.875C46.5359 251.155 46.4959 252.526 46.0019 253.707C45.5079 254.89 44.5639 255.884 43.2839 256.411C42.0059 256.938 40.6329 256.896 39.4539 256.402C38.2699 255.908 37.2739 254.964 36.7469 253.683C36.4199 252.888 36.0569 252.212 35.6729 251.643C35.2829 251.066 34.8659 250.605 34.4369 250.247C34.1329 249.995 33.8389 249.807 33.5539 249.673L33.5519 249.676C33.2529 249.537 32.9639 249.45 32.6909 249.414C32.4149 249.379 32.1399 249.381 31.8689 249.416C31.5869 249.454 31.3089 249.532 31.0479 249.64C30.2899 249.95 29.7109 250.537 29.3269 251.252C28.8919 252.059 28.7059 253.022 28.7909 253.937C28.8479 254.554 29.0189 255.154 29.3039 255.698C29.5769 256.22 29.9579 256.701 30.4429 257.106L42.1899 266.871ZM32.2269 260.848L29.3339 258.445C29.0379 258.198 28.7669 257.925 28.5249 257.636L21.4079 258.387C21.5699 258.792 21.7539 259.188 21.9559 259.573C22.3629 260.345 22.8499 261.087 23.4229 261.776L32.2269 260.848ZM27.0809 254.292C27.0739 254.229 27.0669 254.162 27.0599 254.099C27.0359 253.85 27.0289 253.595 27.0359 253.341L20.8979 250.145C20.5119 251.604 20.3759 253.148 20.5189 254.701C20.5279 254.793 20.5379 254.887 20.5469 254.979L27.0809 254.292ZM28.0789 249.967C28.2069 249.779 28.3429 249.595 28.4929 249.421L26.3869 242.737C24.6519 243.771 23.2469 245.225 22.2419 246.927L28.0789 249.967ZM31.5959 247.708L31.6379 247.701H31.6429C31.9819 247.656 32.3329 247.645 32.6829 247.673L35.8109 241.668C35.1329 241.449 34.4459 241.296 33.7609 241.205C32.7559 241.07 31.7609 241.08 30.7949 241.205C30.3969 241.259 30.0039 241.332 29.6179 241.424L31.5959 247.708ZM35.8299 249.157C36.2749 249.571 36.7049 250.072 37.1129 250.673C37.1689 250.755 37.2239 250.838 37.2779 250.923L42.3679 246.74L42.3539 246.723C41.5559 245.584 40.6779 244.636 39.7489 243.863C39.4759 243.637 39.1979 243.423 38.9179 243.227L35.8299 249.157ZM38.9869 254.018C39.3069 254.362 39.6949 254.625 40.1189 254.801C40.8929 255.126 41.7889 255.155 42.6249 254.811C43.4599 254.467 44.0789 253.817 44.3999 253.046C44.7249 252.27 44.7529 251.373 44.4089 250.537C44.3069 250.292 44.2039 250.052 44.0979 249.817L38.9869 254.018Z" fill="#F8F5EB"/>
<path d="M44.391 12.628C45.087 13.209 45.954 13.449 46.792 13.374C47.63 13.297 48.437 12.901 49.013 12.206L49.018 12.201C49.592 11.512 49.832 10.653 49.762 9.819L41.995 10.636L44.391 12.628ZM26.479 0.000976562H29.199L30.685 1.237L39.803 0.276978L39.471 0.000976562H42.19L49.7 6.24298C50.766 7.12798 51.371 8.36398 51.489 9.64398C51.607 10.92 51.237 12.242 50.35 13.311V13.313H50.347C49.46 14.382 48.227 14.987 46.949 15.105C45.671 15.222 44.346 14.853 43.28 13.966L26.479 0.000976562ZM47.379 6.57397L43.536 3.37799L34.416 4.33798L38.261 7.535L47.379 6.57397Z" fill="#F8F5EB"/>
<path fill-rule="evenodd" clip-rule="evenodd" d="M179.362 223.448C182 210.387 173.383 210.903 179.033 223.528C179.143 223.498 179.252 223.472 179.362 223.448ZM192.871 266.871H189.193C191.115 263.033 190.219 258.284 188.673 253.903C186.781 248.542 185.054 245.978 183.058 240.923C181.437 241.909 171.789 247.007 167.583 248.615C168.717 252.166 174.15 260.395 166.505 264.248C165.07 264.971 163.106 265.813 161.29 266.873H156.637C157.45 265.962 158.453 265.197 159.623 264.647L162.661 263.216C165.347 261.954 168.167 258.713 167.221 255.898L165.121 249.668L164.942 249.753C163.05 250.642 161.032 250.662 159.225 250.012C157.392 249.351 155.782 247.995 154.756 246.168L153.548 244.017L153.553 244.014C153.461 243.852 153.385 243.708 153.327 243.579C152.489 241.797 152.496 239.834 153.141 238.085C153.774 236.374 155.026 234.858 156.693 233.924C156.822 233.851 156.987 233.768 157.185 233.672L176.045 224.803L175.794 224.265C167.966 207.448 186.564 205.758 182.669 223.49C182.947 223.556 183.218 223.636 183.488 223.735C185.321 224.394 186.934 225.75 187.957 227.576L189.165 229.727L189.16 229.732C189.249 229.891 189.325 230.036 189.386 230.167C190.224 231.946 190.215 233.909 189.57 235.658C188.937 237.369 187.687 238.887 186.021 239.819L186.019 239.814L185.988 239.83L192.632 255.833C194.148 259.489 194.166 263.448 192.871 266.871Z" fill="#F8F5EB"/>
<path fill-rule="evenodd" clip-rule="evenodd" d="M156.636 0.000976562H161.288C160.664 0.364977 160.058 0.755995 159.497 1.17599C153.227 5.86099 159.794 13.33 163.564 12.53C170.632 11.026 176.167 8.32398 183.198 5.25198C186.266 3.90998 188.147 2.09098 189.193 0.000976562H192.87C191.659 3.20298 189.299 5.93598 185.944 7.51398C180.194 10.218 173.352 12.04 167.602 14.744C162.934 16.94 157.321 14.916 155.125 10.249C153.483 6.75299 154.207 2.72498 156.636 0.000976562Z" fill="#F8F5EB"/>
<path fill-rule="evenodd" clip-rule="evenodd" d="M271.526 32.736C271.769 31.952 271.253 30.672 270.246 30.818C267.516 31.215 268.832 33.192 269.545 33.423C270.533 33.745 271.293 33.491 271.526 32.736Z" fill="#F8F5EB"/>
<path fill-rule="evenodd" clip-rule="evenodd" d="M269.817 135.519C270.582 135.222 271.262 134.022 270.523 133.323C268.515 131.433 267.784 133.691 268.045 134.392C268.407 135.369 269.078 135.804 269.817 135.519Z" fill="#F8F5EB"/>
</svg>
